<?xml version="1.0" encoding="UTF-8" standalone="no"?>
<!-- Created with Inkscape (http://www.inkscape.org/) -->

<svg
   xmlns:dc="http://purl.org/dc/elements/1.1/"
   xmlns:cc="http://creativecommons.org/ns#"
   xmlns:rdf="http://www.w3.org/1999/02/22-rdf-syntax-ns#"
   xmlns:svg="http://www.w3.org/2000/svg"
   xmlns="http://www.w3.org/2000/svg"
   xmlns:xlink="http://www.w3.org/1999/xlink"
   xmlns:sodipodi="http://sodipodi.sourceforge.net/DTD/sodipodi-0.dtd"
   xmlns:inkscape="http://www.inkscape.org/namespaces/inkscape"
   width="115.17595"
   height="110.28163"
   viewBox="0 0 30.473636 29.178682"
   version="1.1"
   id="svg2168"
   inkscape:version="0.92.3 (2405546, 2018-03-11)"
   sodipodi:docname="fenix-ready.svg">
  <defs
     id="defs2162">
    <linearGradient
       inkscape:collect="always"
       xlink:href="#linearGradient1362"
       id="linearGradient5009"
       gradientUnits="userSpaceOnUse"
       gradientTransform="matrix(0.26458333,0,0,0.26458333,-703.70354,-446.46364)"
       x1="-188.7793"
       y1="1564.8486"
       x2="13.835938"
       y2="1383.8486" />
    <linearGradient
       inkscape:collect="always"
       id="linearGradient1362">
      <stop
         style="stop-color:#f91200;stop-opacity:1"
         offset="0"
         id="stop1358" />
      <stop
         style="stop-color:#f9ff33;stop-opacity:1"
         offset="1"
         id="stop1360" />
    </linearGradient>
    <linearGradient
       inkscape:collect="always"
       xlink:href="#linearGradient1362"
       id="linearGradient5011"
       gradientUnits="userSpaceOnUse"
       gradientTransform="matrix(0.26458333,0,0,0.26458333,-703.70354,-446.46364)"
       x1="-214.72852"
       y1="1579.67"
       x2="-437.93945"
       y2="1375.2148" />
    <linearGradient
       inkscape:collect="always"
       xlink:href="#linearGradient1362"
       id="linearGradient5013"
       gradientUnits="userSpaceOnUse"
       gradientTransform="matrix(0.26458333,0,0,0.26458333,-703.70354,-446.46364)"
       x1="-141.72853"
       y1="1381.67"
       x2="-385.10547"
       y2="1794.797" />
    <linearGradient
       inkscape:collect="always"
       xlink:href="#linearGradient1362"
       id="linearGradient5015"
       gradientUnits="userSpaceOnUse"
       gradientTransform="translate(-703.70354,-446.46311)"
       x1="-64.950043"
       y1="374.73837"
       x2="-30.140455"
       y2="354.69205" />
    <clipPath
       id="clipPath2386"
       clipPathUnits="userSpaceOnUse">
      <path
         inkscape:connector-curvature="0"
         id="path2384"
         d="M 0,566 H 800 V 0 H 0 Z" />
    </clipPath>
  </defs>
  <sodipodi:namedview
     id="base"
     pagecolor="#ffffff"
     bordercolor="#666666"
     borderopacity="1.0"
     inkscape:pageopacity="0.0"
     inkscape:pageshadow="2"
     inkscape:zoom="1.979899"
     inkscape:cx="94.615216"
     inkscape:cy="29.481419"
     inkscape:document-units="px"
     inkscape:current-layer="layer1"
     showgrid="false"
     inkscape:window-width="1920"
     inkscape:window-height="1029"
     inkscape:window-x="0"
     inkscape:window-y="27"
     inkscape:window-maximized="1"
     units="px"
     fit-margin-top="0"
     fit-margin-left="0"
     fit-margin-right="0"
     fit-margin-bottom="0" />
  <metadata
     id="metadata2165">
    <rdf:RDF>
      <cc:Work
         rdf:about="">
        <dc:format>image/svg+xml</dc:format>
        <dc:type
           rdf:resource="http://purl.org/dc/dcmitype/StillImage" />
        <dc:title></dc:title>
      </cc:Work>
    </rdf:RDF>
  </metadata>
  <g
     inkscape:label="Layer 1"
     inkscape:groupmode="layer"
     id="layer1"
     transform="translate(-6.1039118,-61.733756)">
    <g
       id="g1609"
       transform="matrix(0.23864968,0,0,0.23864968,204.21082,94.216441)"
       style="stroke-width:4.19024229"
       inkscape:export-filename="/home/pashi/Documents/inkscape-creations/fenix-ready.png"
       inkscape:export-xdpi="300"
       inkscape:export-ydpi="300">
      <path
         style="display:inline;opacity:1;vector-effect:none;fill:url(#linearGradient5009);fill-opacity:1;fill-rule:nonzero;stroke:none;stroke-width:1.11041415;stroke-linecap:square;stroke-linejoin:miter;stroke-miterlimit:4;stroke-dasharray:none;stroke-dashoffset:0;stroke-opacity:1"
         d="m -719.35479,-126.15864 a 57.573356,57.573356 0 0 1 1.23766,11.33626 57.573356,57.573356 0 0 1 -33.7349,52.231949 30.995223,30.995223 0 0 1 5.75366,17.9214 30.995223,30.995223 0 0 1 -25.3659,30.46325 65.992348,65.992348 0 0 0 6.06372,0.36121 65.992348,65.992348 0 0 0 47.40227,-20.08508 65.992348,65.992348 0 0 0 15.08073,-24.57215 53.550952,53.550952 0 0 0 0.49351,-1.95595 53.550952,53.550952 0 0 1 -26.07231,24.95973 53.550952,53.550952 0 0 0 25.67802,-45.6701 53.550952,53.550952 0 0 0 -0.75602,-8.64597 53.550952,53.550952 0 0 1 -10.20196,26.7131 53.550952,53.550952 0 0 0 6.46007,-25.47546 53.550952,53.550952 0 0 0 -3.6034,-19.011739 53.550952,53.550952 0 0 1 0.14883,3.16309 53.550952,53.550952 0 0 1 -17.88573,39.859579 53.550952,53.550952 0 0 0 15.15721,-37.250949 53.550952,53.550952 0 0 0 -5.85546,-24.34217 z"
         id="path4991"
         inkscape:connector-curvature="0" />
      <path
         style="display:inline;opacity:1;vector-effect:none;fill:url(#linearGradient5011);fill-opacity:1;fill-rule:nonzero;stroke:none;stroke-width:1.11041415;stroke-linecap:square;stroke-linejoin:miter;stroke-miterlimit:4;stroke-dasharray:none;stroke-dashoffset:0;stroke-opacity:1"
         d="m -816.61913,-117.5664 a 53.550952,53.550952 0 0 0 -0.0532,0.0863 53.550952,53.550952 0 0 0 -2.47427,15.98869 53.550952,53.550952 0 0 0 8.03827,28.146619 53.550952,53.550952 0 0 1 -11.35486,-31.452879 53.550952,53.550952 0 0 0 -2.31304,15.516889 53.550952,53.550952 0 0 0 3.82716,19.82412 53.550952,53.550952 0 0 1 -7.4533,-17.07544 53.550952,53.550952 0 0 0 -0.11524,2.30322 53.550952,53.550952 0 0 0 17.76533,39.75881 53.550952,53.550952 0 0 1 -19.36368,-22.51232 65.992348,65.992348 0 0 0 51.65473,51.76687 30.995223,30.995223 0 0 0 10.19266,-22.92884 30.995223,30.995223 0 0 0 -9.03976,-21.80487 57.573356,57.573356 0 0 1 -39.49164,-54.499009 57.573356,57.573356 0 0 1 0.18086,-3.11814 z"
         id="path4993"
         inkscape:connector-curvature="0" />
      <path
         style="display:inline;opacity:1;vector-effect:none;fill:url(#linearGradient5013);fill-opacity:1;fill-rule:nonzero;stroke:none;stroke-width:1.11041415;stroke-linecap:square;stroke-linejoin:miter;stroke-miterlimit:4;stroke-dasharray:none;stroke-dashoffset:0;stroke-opacity:1"
         d="m -770.71547,-79.695311 c -0.35385,0.0421 -0.70976,0.0645 -1.06609,0.0672 -2.25294,0 -4.43435,-0.79115 -6.16551,-2.23295 1.48715,2.96257 4.39194,4.95343 7.69152,5.27154 -1.39595,0.47389 -2.8594,0.71874 -4.33359,0.72501 -1.89025,-0.004 -3.75917,-0.3996 -5.48855,-1.16271 -0.40772,-0.17886 -0.80645,-0.37754 -1.19476,-0.59532 -0.075,-0.0449 -0.14961,-0.0906 -0.22376,-0.13695 -0.30984,-0.17856 -0.61256,-0.36922 -0.90744,-0.57155 -0.317,-0.21926 -0.62458,-0.45183 -0.92191,-0.6971 2.31595,4.61968 7.04034,7.53724 12.20804,7.53907 0.82675,-0.004 1.65145,-0.0827 2.46394,-0.23564 0.0247,0.37171 0.0424,0.74382 0.0532,1.1162 -0.01,4.25048 -0.92416,8.45018 -2.68304,12.31966 l -0.66301,1.3834 c 4.1262,5.38567 6.37131,11.97652 6.39083,18.76113 -0.0147,8.96823 -3.91322,17.49049 -10.68876,23.36601 15.79778,-1.63361 27.80464,-14.94403 27.80709,-30.82605 -0.004,-5.79583 -1.63375,-11.47431 -4.70307,-16.39072 -3.32243,-15.24691 3.67262,-10.76672 4.57957,-18.37148 -0.0211,-0.77734 -0.12269,-1.55038 -0.30283,-2.30685 -4e-5,-1.6e-4 4e-5,0 0,0 l -2.09651,-3.07062 -4.23218,-4.00997 c -9.64948,-1.98956 -15.74281,4.10133 -15.5232,10.05872 z"
         id="path4995"
         inkscape:connector-curvature="0" />
      <path
         inkscape:connector-curvature="0"
         id="path4997"
         d="m -759.3846,-88.264211 a 2.9670571,2.9670571 0 0 0 -2.82886,0.77415 2.9670571,2.9670571 0 0 0 -0.77402,2.829 2.9670571,2.9670571 0 0 0 2.82887,-0.77415 2.9670571,2.9670571 0 0 0 0.77401,-2.829 z"
         style="opacity:1;vector-effect:none;fill:#ffff00;fill-opacity:1;fill-rule:nonzero;stroke:none;stroke-width:33.26004791;stroke-linecap:round;stroke-linejoin:round;stroke-miterlimit:4;stroke-dasharray:none;stroke-dashoffset:0;stroke-opacity:1" />
      <path
         style="opacity:1;fill:url(#linearGradient5015);fill-opacity:1;stroke:none;stroke-width:1.10866821px;stroke-linecap:butt;stroke-linejoin:miter;stroke-opacity:1"
         d="m -756.59829,-82.903041 c 0,0 0.73102,-1.44973 1.40602,-6.851 0,0 12.16565,-8.13674 18.43785,-8.59713 -0.37166,-0.29341 -12.53326,13.27756 -12.10916,15.67773 0,0 0.0429,-0.78375 -7.73471,-0.2296 z"
         id="path4999"
         inkscape:connector-curvature="0"
         sodipodi:nodetypes="ccccc" />
      <g
         transform="matrix(0.2808744,0,0,-0.2808744,-815.7266,13.121269)"
         inkscape:label="free-vector-tree-illustration"
         id="g4989"
         style="opacity:1;stroke-width:5.26293802">
        <g
           id="g4987"
           style="stroke-width:5.26293802">
          <g
             clip-path="url(#clipPath2386)"
             id="g4985"
             style="stroke-width:5.26293802">
            <g
               transform="translate(106.77675,307.01055)"
               id="g4769"
               style="stroke-width:5.26293802">
              <path
                 inkscape:connector-curvature="0"
                 id="path4767"
                 style="fill:#578935;fill-opacity:1;fill-rule:nonzero;stroke:none;stroke-width:5.26293802"
                 d="m 0,0 c 0,0 1.38,-0.364 3.25,-1.498 1.896,-1.124 4.151,-3.1 5.821,-6.094 0.785,-1.494 1.511,-3.231 1.798,-5.183 0.16,-0.976 0.255,-2.001 0.263,-3.069 -0.033,-1.073 -0.151,-2.19 -0.372,-3.33 -0.201,-1.138 -0.567,-2.316 -1.062,-3.501 -0.506,-1.189 -1.049,-2.369 -1.872,-3.554 -0.802,-1.179 -1.702,-2.331 -2.799,-3.427 -1.136,-1.094 -2.409,-2.113 -3.824,-3.015 -3.471,5.606 -5.531,9.428 -6.315,12.981 -0.427,1.761 -0.521,3.395 -0.481,4.958 0.104,1.565 0.331,3.034 0.727,4.441 0.426,1.414 0.862,2.711 1.408,3.93 0.554,1.224 1.101,2.321 1.592,3.254 C -0.863,-1.229 0,0 0,0" />
            </g>
            <g
               transform="translate(44.524554,433.07256)"
               id="g4773"
               style="stroke-width:5.26293802">
              <path
                 inkscape:connector-curvature="0"
                 id="path4771"
                 style="fill:#578935;fill-opacity:1;fill-rule:nonzero;stroke:none;stroke-width:5.26293802"
                 d="m 0,0 c 0,0 1.366,-1.078 3.077,-2.633 0.853,-0.779 1.769,-1.64 2.762,-2.64 0.992,-1.019 1.832,-1.992 2.691,-3.273 0.828,-1.261 1.456,-2.572 1.908,-4.295 0.217,-0.849 0.35,-1.693 0.419,-2.69 0.07,-1.009 0.054,-2.073 -0.065,-3.191 -0.114,-1.087 -0.349,-2.397 -0.698,-3.666 -0.345,-1.28 -0.814,-2.617 -1.474,-4.049 -0.662,-1.417 -1.404,-2.815 -2.42,-4.251 -1.012,-1.428 -2.188,-2.813 -3.536,-4.103 -2.466,2.461 -4.294,4.404 -5.815,6.325 -0.724,0.932 -1.349,1.857 -1.903,2.816 -0.544,0.955 -0.958,1.839 -1.309,2.808 -0.71,1.961 -1.033,3.824 -1.091,5.857 -0.025,0.997 0.01,1.921 0.119,2.902 0.113,0.994 0.284,1.948 0.498,2.854 0.398,1.774 1.093,3.552 1.802,4.977 0.361,0.723 0.719,1.37 1.108,1.971 0.406,0.61 0.806,1.147 1.186,1.615 C -1.21,-0.795 0,0 0,0" />
            </g>
            <g
               transform="translate(70.117354,403.37276)"
               id="g4777"
               style="stroke-width:5.26293802">
              <path
                 inkscape:connector-curvature="0"
                 id="path4775"
                 style="fill:#78bd49;fill-opacity:1;fill-rule:nonzero;stroke:none;stroke-width:5.26293802"
                 d="m 0,0 c 0.001,0 0.882,-1.128 1.752,-3.412 0.795,-2.231 1.458,-5.796 0.674,-9.842 -0.737,-4.009 -2.907,-8.279 -6.224,-11.069 -1.664,-1.443 -3.595,-2.547 -5.851,-3.419 -2.266,-0.887 -4.876,-1.525 -8.045,-2.342 -0.204,3.484 0.234,6.703 0.929,9.45 0.707,2.765 1.648,5.029 2.623,6.907 1.989,3.757 4.014,5.874 5.99,7.583 1.973,1.674 3.953,3.07 5.518,4.235 0.771,0.573 1.403,1.065 1.881,1.396 C -0.272,-0.186 0,0 0,0" />
            </g>
            <g
               transform="translate(81.648554,373.95096)"
               id="g4781"
               style="stroke-width:5.26293802">
              <path
                 inkscape:connector-curvature="0"
                 id="path4779"
                 style="fill:#578935;fill-opacity:1;fill-rule:nonzero;stroke:none;stroke-width:5.26293802"
                 d="m 0,0 c 0,0 0.889,-1.482 1.62,-4.175 0.352,-1.339 0.729,-3.044 0.698,-4.847 0.009,-0.919 -0.035,-1.897 -0.148,-2.922 -0.107,-1.027 -0.271,-2.111 -0.624,-3.123 -0.682,-2.041 -1.557,-4.352 -3.156,-6.169 -0.77,-0.938 -1.615,-1.876 -2.595,-2.68 -1.026,-0.734 -2.15,-1.397 -3.35,-1.947 -1.167,-0.611 -2.553,-0.839 -3.943,-1.009 -1.391,-0.159 -2.824,-0.192 -4.355,0.218 -1.517,0.387 -3.004,0.788 -4.509,1.719 -1.504,0.927 -2.96,2.067 -4.3,3.429 3.947,6.336 5.779,10.453 7.845,12.98 0.478,0.702 0.975,1.271 1.505,1.737 0.548,0.438 0.986,1.014 1.54,1.377 0.513,0.422 1.155,0.649 1.668,1.036 0.54,0.351 1.116,0.64 1.719,0.891 0.301,0.126 0.61,0.242 0.924,0.351 0.294,0.13 0.583,0.26 0.869,0.386 0.583,0.248 1.182,0.467 1.781,0.665 1.242,0.365 2.332,0.772 3.316,1.101 C -1.507,-0.333 0,0 0,0" />
            </g>
            <g
               transform="translate(13.479154,410.97926)"
               id="g4785"
               style="stroke-width:5.26293802">
              <path
                 inkscape:connector-curvature="0"
                 id="path4783"
                 style="fill:#578935;fill-opacity:1;fill-rule:nonzero;stroke:none;stroke-width:5.26293802"
                 d="m 0,0 c 0,0 1.427,-0.132 3.43,-0.688 1.971,-0.596 4.651,-1.412 7.258,-3.002 1.356,-0.763 2.608,-1.795 3.962,-3.03 0.662,-0.628 1.285,-1.352 1.917,-2.15 0.657,-0.786 1.289,-1.669 1.892,-2.667 2.456,-3.949 4.741,-9.634 6.336,-17.928 -6.128,-0.273 -11.01,1.405 -14.812,4.219 -1.883,1.448 -3.509,3.079 -4.822,4.954 -1.346,1.785 -2.362,3.803 -3.157,5.729 -0.823,1.877 -1.292,3.893 -1.651,5.61 -0.372,1.716 -0.495,3.342 -0.529,4.687 C -0.254,-1.587 0,0 0,0" />
            </g>
            <g
               transform="translate(85.62677,342.17723)"
               id="g4789"
               style="stroke-width:5.26293802">
              <path
                 inkscape:connector-curvature="0"
                 id="path4787"
                 style="fill:#578935;fill-opacity:1;fill-rule:nonzero;stroke:none;stroke-width:5.26293802"
                 d="m 0,0 c 0,0 0.109,-0.374 0.22,-1.102 0.097,-0.715 0.246,-1.848 0.144,-3.255 -0.163,-1.331 -0.429,-3.169 -1.242,-4.915 -0.382,-0.914 -0.853,-1.889 -1.457,-2.742 -0.592,-0.889 -1.282,-1.847 -2.065,-2.613 -3.135,-3.331 -7.652,-5.504 -12.257,-5.789 -2.362,-0.176 -4.694,0.075 -7.254,0.6 -2.57,0.473 -5.273,1.424 -8.896,1.442 1.095,3.784 3.463,6.777 5.737,8.919 2.318,2.177 4.662,3.608 6.741,4.635 4.255,2.038 7.522,2.568 10.203,2.891 0.335,0.039 0.674,0.066 1.014,0.086 0.313,0.038 0.621,0.074 0.921,0.111 0.319,0.024 0.63,0.046 0.936,0.07 0.303,0.027 0.567,0.084 0.858,0.117 1.19,0.1 2.207,0.354 3.187,0.557 0.963,0.215 1.698,0.539 2.292,0.703 C -0.329,-0.102 0,0 0,0" />
            </g>
            <g
               transform="translate(177.43815,471.49486)"
               id="g4793"
               style="stroke-width:5.26293802">
              <path
                 inkscape:connector-curvature="0"
                 id="path4791"
                 style="fill:#4d752e;fill-opacity:1;fill-rule:nonzero;stroke:none;stroke-width:5.26293802"
                 d="m 0,0 c 0,0 0.729,-1.486 1.2,-4.059 0.54,-2.604 0.501,-6.23 -0.936,-9.967 -0.377,-0.88 -0.831,-1.77 -1.368,-2.641 -0.268,-0.429 -0.557,-0.878 -0.868,-1.276 -0.314,-0.375 -0.645,-0.74 -0.999,-1.094 -0.701,-0.701 -1.492,-1.383 -2.344,-1.94 -0.834,-0.492 -1.743,-0.91 -2.725,-1.232 -0.998,-0.355 -1.975,-0.454 -3.07,-0.509 -1.09,-0.045 -2.241,0.033 -3.427,0.284 -2.434,0.476 -5.091,1.454 -8.33,2.961 1.392,7.16 4.062,11.745 6.38,14.414 0.554,0.673 1.129,1.234 1.722,1.7 0.611,0.464 1.067,0.864 1.645,1.168 1.176,0.587 2.153,0.996 3.311,1.206 2.168,0.495 4.618,0.548 6.47,0.797 C -1.44,-0.015 0,0 0,0" />
            </g>
            <g
               transform="translate(136.51775,486.77666)"
               id="g4797"
               style="stroke-width:5.26293802">
              <path
                 inkscape:connector-curvature="0"
                 id="path4795"
                 style="fill:#578935;fill-opacity:1;fill-rule:nonzero;stroke:none;stroke-width:5.26293802"
                 d="m 0,0 c 0,0 1.062,-0.933 2.428,-2.279 1.402,-1.369 3.156,-3.001 4.64,-4.985 1.485,-2.02 2.708,-4.501 3.042,-8.487 0.15,-1.965 0.071,-4.312 -0.476,-6.96 -0.546,-2.631 -1.557,-5.585 -3.351,-8.367 -2.186,1.819 -3.992,3.291 -5.463,4.819 -1.466,1.51 -2.631,3.083 -3.504,4.775 -1.757,3.346 -2.363,7.277 -2.056,10.776 0.29,3.514 1.481,6.399 2.615,8.153 0.553,0.887 1.122,1.525 1.5,1.939 C -0.236,-0.201 0,0 0,0" />
            </g>
            <g
               transform="translate(177.9639,425.45736)"
               id="g4801"
               style="stroke-width:5.26293802">
              <path
                 inkscape:connector-curvature="0"
                 id="path4799"
                 style="fill:#578935;fill-opacity:1;fill-rule:nonzero;stroke:none;stroke-width:5.26293802"
                 d="m 0,0 c 0,0 -0.035,-2.299 -0.558,-5.623 -0.511,-3.335 -1.559,-7.655 -3.632,-11.646 -1.068,-1.952 -2.324,-3.909 -3.977,-5.433 -0.817,-0.774 -1.694,-1.497 -2.656,-2.095 -0.982,-0.562 -2.032,-1.027 -3.145,-1.367 -4.47,-1.267 -10.258,-0.114 -16.166,5.869 3.703,8.051 6.683,13.116 9.735,16.326 3.01,3.261 6.101,4.731 9.091,5.347 C -8.333,1.99 -5.505,1.651 -3.424,1.18 -1.34,0.694 0,0 0,0" />
            </g>
            <g
               transform="translate(108.66955,397.77666)"
               id="g4805"
               style="stroke-width:5.26293802">
              <path
                 inkscape:connector-curvature="0"
                 id="path4803"
                 style="fill:#578935;fill-opacity:1;fill-rule:nonzero;stroke:none;stroke-width:5.26293802"
                 d="m 0,0 c 0,0 1.564,0.568 3.74,1.013 2.15,0.401 4.982,0.906 7.681,0.497 1.404,-0.167 2.695,-0.644 4.07,-1.409 0.674,-0.393 1.316,-0.899 1.957,-1.518 0.666,-0.602 1.31,-1.331 1.931,-2.207 2.5,-3.473 4.902,-9.242 6.598,-18.561 -6.036,-3.049 -10.897,-3.289 -14.805,-1.727 -1.952,0.811 -3.643,1.991 -5.068,3.529 -1.432,1.45 -2.578,3.28 -3.477,5.099 -0.915,1.768 -1.517,3.795 -1.955,5.559 -0.445,1.76 -0.646,3.498 -0.734,4.96 C -0.243,-1.854 0,0 0,0" />
            </g>
            <g
               transform="translate(195.28234,397.87334)"
               id="g4809"
               style="stroke-width:5.26293802">
              <path
                 inkscape:connector-curvature="0"
                 id="path4807"
                 style="fill:#78bd49;fill-opacity:1;fill-rule:nonzero;stroke:none;stroke-width:5.26293802"
                 d="m 0,0 c 0,0 -0.004,-0.493 -0.08,-1.359 -0.081,-0.854 -0.221,-2.138 -0.546,-3.601 -0.628,-2.944 -2.018,-6.802 -4.299,-10.053 -2.261,-3.264 -5.323,-5.817 -8.882,-6.715 -1.814,-0.459 -3.729,-0.532 -5.955,-0.321 -2.233,0.181 -4.765,0.715 -8.014,0.686 0.416,4.428 1.733,8.336 3.27,11.398 1.556,3.096 3.336,5.365 5.054,7.03 3.487,3.348 6.714,4.348 9.458,4.59 2.745,0.222 5.14,-0.345 6.959,-0.772 0.92,-0.247 1.65,-0.419 2.193,-0.598 C -0.307,0.121 0,0 0,0" />
            </g>
            <g
               transform="translate(242.16402,432.01003)"
               id="g4813"
               style="stroke-width:5.26293802">
              <path
                 inkscape:connector-curvature="0"
                 id="path4811"
                 style="fill:#4d752e;fill-opacity:1;fill-rule:nonzero;stroke:none;stroke-width:5.26293802"
                 d="m 0,0 c 0,0 0.705,-2.086 1.723,-5.097 0.959,-2.908 2.326,-6.55 2.951,-10.382 0.623,-3.869 0.506,-8.088 -1.602,-12.86 -2.122,-4.734 -6.225,-10.137 -13.68,-15.878 -4.932,7.419 -6.983,14.235 -7.028,20.33 -0.059,6.075 1.825,11.311 4.505,15.216 2.661,3.925 6.033,6.404 8.694,7.539 1.279,0.59 2.458,0.855 3.222,0.99 C -0.437,-0.007 0,0 0,0" />
            </g>
            <g
               transform="translate(280.09345,432.54076)"
               id="g4817"
               style="stroke-width:5.26293802">
              <path
                 inkscape:connector-curvature="0"
                 id="path4815"
                 style="fill:#578935;fill-opacity:1;fill-rule:nonzero;stroke:none;stroke-width:5.26293802"
                 d="m 0,0 c 0,-0.002 0.031,-1.846 -0.449,-4.449 -0.466,-2.584 -1.507,-5.898 -3.131,-8.649 -1.62,-2.78 -3.692,-4.871 -6.261,-5.586 -1.34,-0.384 -2.872,-0.415 -4.942,-0.557 -2.079,-0.146 -4.79,-0.456 -8.253,-1.731 -1.402,3.422 -1.667,7.181 -1.057,10.507 0.599,3.368 2.03,6.114 3.604,8.186 1.602,2.102 3.355,3.4 5.046,4.282 1.678,0.832 3.314,1.213 4.799,1.274 C -7.653,3.412 -5.091,2.483 -3.17,1.648 -1.262,0.807 0,-0.002 0,0" />
            </g>
            <g
               transform="translate(208.76163,438.7121)"
               id="g4821"
               style="stroke-width:5.26293802">
              <path
                 inkscape:connector-curvature="0"
                 id="path4819"
                 style="fill:#578935;fill-opacity:1;fill-rule:nonzero;stroke:none;stroke-width:5.26293802"
                 d="m 0,0 c 0,0 0.892,-1.983 1.944,-4.697 1.117,-2.771 2.525,-6.119 3.567,-9.37 1.053,-3.325 1.563,-6.535 0.698,-11.134 -0.914,-4.553 -3.098,-10.779 -7.794,-19.197 -6.547,4.65 -10.381,10.476 -11.834,16.767 -1.515,6.23 -0.497,12.618 1.665,17.197 2.154,4.653 5.289,7.433 7.66,8.812 1.196,0.705 2.256,1.081 2.962,1.318 C -0.411,-0.072 0,0 0,0" />
            </g>
            <g
               transform="translate(-19.276246,340.54126)"
               id="g4829"
               style="stroke-width:5.26293802">
              <path
                 inkscape:connector-curvature="0"
                 id="path4827"
                 style="fill:#78bd49;fill-opacity:1;fill-rule:nonzero;stroke:none;stroke-width:5.26293802"
                 d="M 0,0 C 0,0 1.122,-0.992 2.539,-2.554 3.901,-4.14 5.756,-6.146 7.15,-8.41 c 0.383,-0.56 0.732,-1.144 1.037,-1.766 0.152,-0.309 0.291,-0.628 0.418,-0.958 0.153,-0.325 0.303,-0.66 0.435,-1.007 0.263,-0.696 0.474,-1.444 0.619,-2.268 0.21,-0.817 0.363,-1.708 0.446,-2.699 0.395,-3.939 0.17,-9.588 -1.114,-17.969 -5.171,1.17 -8.805,4.44 -11.047,8.729 -0.542,1.094 -1.008,2.22 -1.403,3.35 -0.388,1.138 -0.632,2.372 -0.851,3.534 -0.47,2.313 -0.449,4.698 -0.341,6.788 0.35,4.25 1.495,7.533 2.641,9.599 C -0.905,-0.991 0,0 0,0" />
            </g>
            <g
               transform="translate(-44.874346,280.35616)"
               id="g4833"
               style="stroke-width:5.26293802">
              <path
                 inkscape:connector-curvature="0"
                 id="path4831"
                 style="fill:#78bd49;fill-opacity:1;fill-rule:nonzero;stroke:none;stroke-width:5.26293802"
                 d="m 0,0 c 0,0 -0.115,1.876 0.132,4.548 0.252,2.674 0.853,6.166 2.575,9.479 1.724,3.267 4.645,6.529 9.476,7.784 2.356,0.623 5.254,0.65 8.22,-0.392 2.947,-1.027 6.003,-3.257 7.978,-6.816 C 25.891,12.135 24.368,9.823 23.064,7.974 21.779,6.126 20.684,4.643 19.481,3.441 17.133,1.106 14.336,-0.173 11.439,-0.763 8.558,-1.362 5.667,-1.244 3.525,-0.898 1.378,-0.558 0,0 0,0" />
            </g>
            <g
               transform="translate(96.321846,318.19786)"
               id="g4837"
               style="stroke-width:5.26293802">
              <path
                 inkscape:connector-curvature="0"
                 id="path4835"
                 style="fill:#78bd49;fill-opacity:1;fill-rule:nonzero;stroke:none;stroke-width:5.26293802"
                 d="m 0,0 c 0,0 0.041,-0.461 0.111,-1.252 0.056,-0.759 0.137,-1.832 0.233,-3.104 0.191,-2.532 0.594,-5.551 0.614,-8.427 -0.003,-2.92 -0.507,-5.808 -2.762,-9.21 -1.129,-1.664 -2.696,-3.456 -4.865,-5.186 -2.163,-1.707 -4.936,-3.382 -8.357,-4.379 -1.113,3.506 -1.96,6.439 -2.392,9.163 -0.443,2.705 -0.479,5.223 -0.139,7.566 0.656,4.673 2.923,8.732 5.746,11.36 2.817,2.665 5.979,3.725 8.21,3.849 1.107,0.094 2.043,-0.052 2.65,-0.152 C -0.335,0.114 0,0 0,0" />
            </g>
            <g
               transform="translate(91.090471,371.65454)"
               id="g4841"
               style="stroke-width:5.26293802">
              <path
                 inkscape:connector-curvature="0"
                 id="path4839"
                 style="fill:#78bd49;fill-opacity:1;fill-rule:nonzero;stroke:none;stroke-width:5.26293802"
                 d="m 0,0 c 0,0 1.358,1.018 3.591,1.934 2.247,0.935 5.311,1.65 8.504,1.313 1.57,-0.158 3.211,-0.629 4.706,-1.381 0.755,-0.384 1.507,-0.885 2.222,-1.467 0.705,-0.553 1.389,-1.223 2.052,-2.029 0.666,-0.837 1.285,-1.681 1.894,-2.717 0.609,-1.022 1.198,-2.274 1.788,-3.521 0.593,-1.273 1.183,-2.825 1.827,-4.445 0.666,-1.682 1.385,-3.497 2.166,-5.478 -1.434,-0.967 -2.914,-1.73 -4.397,-2.313 -1.49,-0.582 -2.859,-0.817 -4.249,-1.002 -1.401,-0.186 -2.676,-0.144 -3.876,0.012 -1.193,0.157 -2.406,0.396 -3.408,0.784 -4.182,1.499 -6.936,4.399 -8.727,7.393 -0.926,1.531 -1.582,3.044 -2.124,4.542 -0.538,1.507 -0.92,2.914 -1.208,4.133 C 0.183,-1.78 0,0 0,0" />
            </g>
            <g
               transform="translate(104.86746,345.42962)"
               id="g4845"
               style="stroke-width:5.26293802">
              <path
                 inkscape:connector-curvature="0"
                 id="path4843"
                 style="fill:#578935;fill-opacity:1;fill-rule:nonzero;stroke:none;stroke-width:5.26293802"
                 d="m 0,0 c 0,0 1.31,0.534 3.27,0.956 0.978,0.209 2.108,0.377 3.37,0.536 1.261,0.163 2.559,0.106 3.964,0.056 1.396,-0.065 2.79,-0.43 4.248,-0.861 0.724,-0.236 1.445,-0.572 2.175,-0.971 0.739,-0.341 1.479,-0.778 2.229,-1.329 0.746,-0.59 1.515,-1.136 2.307,-1.836 0.793,-0.687 1.606,-1.593 2.473,-2.409 0.866,-0.848 1.78,-1.936 2.777,-3.015 0.999,-1.043 2.084,-2.246 3.302,-3.611 -1.159,-1.036 -2.386,-1.932 -3.645,-2.692 -1.26,-0.763 -2.502,-1.17 -3.763,-1.58 -0.624,-0.179 -1.263,-0.378 -1.87,-0.458 -0.605,-0.081 -1.206,-0.137 -1.8,-0.167 -1.178,-0.034 -2.376,-0.081 -3.442,0.161 -1.082,0.203 -2.122,0.482 -3.112,0.823 -0.993,0.332 -1.872,0.852 -2.731,1.342 -1.721,0.971 -3.132,2.274 -4.325,3.588 -1.215,1.274 -2.117,2.753 -2.861,4.068 -0.75,1.308 -1.27,2.601 -1.637,3.722 C 0.184,-1.459 0,0 0,0" />
            </g>
            <g
               transform="translate(127.82034,283.59405)"
               id="g4849"
               style="stroke-width:5.26293802">
              <path
                 inkscape:connector-curvature="0"
                 id="path4847"
                 style="fill:#78bd49;fill-opacity:1;fill-rule:nonzero;stroke:none;stroke-width:5.26293802"
                 d="m 0,0 c 0,0 1.331,0.85 3.273,1.718 1.964,0.89 4.435,1.71 6.982,1.855 1.301,0.106 2.603,-0.005 3.864,-0.473 0.633,-0.232 1.247,-0.566 1.867,-0.984 0.64,-0.373 1.271,-0.852 1.89,-1.456 1.252,-1.178 2.411,-2.997 3.64,-5.232 1.229,-2.238 2.441,-5.135 3.702,-8.856 -2.503,-1.832 -4.912,-3.006 -7.155,-3.672 -1.127,-0.36 -2.189,-0.5 -3.203,-0.518 -1.015,-0.027 -1.983,0.053 -2.899,0.221 -1.836,0.323 -3.462,1 -4.815,2.075 -1.366,1.022 -2.51,2.246 -3.444,3.532 -0.952,1.236 -1.611,2.787 -2.14,4.144 -0.518,1.385 -0.866,2.697 -1.097,3.83 C 0.004,-1.55 0,0 0,0" />
            </g>
            <g
               transform="translate(243.74385,320.24876)"
               id="g4853"
               style="stroke-width:5.26293802">
              <path
                 inkscape:connector-curvature="0"
                 id="path4851"
                 style="fill:#578935;fill-opacity:1;fill-rule:nonzero;stroke:none;stroke-width:5.26293802"
                 d="m 0,0 c 0,0 1.252,-0.899 2.775,-2.511 0.755,-0.804 1.582,-1.781 2.464,-2.908 0.884,-1.125 1.587,-2.437 2.365,-3.875 0.75,-1.442 1.23,-3.1 1.675,-4.898 0.195,-0.909 0.315,-1.881 0.353,-2.923 0.107,-1.001 0.13,-2.076 0.051,-3.242 -0.035,-0.579 -0.12,-1.203 -0.18,-1.811 -0.047,-0.599 -0.119,-1.225 -0.22,-1.881 -0.099,-0.654 -0.225,-1.341 -0.381,-2.058 -0.083,-0.362 -0.168,-0.73 -0.253,-1.102 -0.072,-0.357 -0.143,-0.72 -0.215,-1.088 -0.301,-1.48 -0.767,-3.165 -1.242,-4.964 -0.391,-1.732 -0.876,-3.683 -1.424,-5.901 -1.639,0.382 -3.2,0.945 -4.651,1.652 -1.408,0.732 -2.525,1.66 -3.627,2.632 -1.133,0.969 -1.913,2.08 -2.659,3.211 -0.719,1.138 -1.405,2.308 -1.793,3.527 -0.432,1.211 -0.766,2.439 -1.015,3.659 -0.245,1.221 -0.281,2.459 -0.315,3.66 -0.088,2.396 0.293,4.739 0.819,6.885 0.477,2.131 1.304,4.13 2.098,5.85 0.401,0.861 0.811,1.659 1.216,2.39 0.441,0.744 0.872,1.419 1.278,2.02 C -1.25,-1.27 0,0 0,0" />
            </g>
            <g
               transform="translate(264.90985,342.19016)"
               id="g4857"
               style="stroke-width:5.26293802">
              <path
                 inkscape:connector-curvature="0"
                 id="path4855"
                 style="fill:#78bd49;fill-opacity:1;fill-rule:nonzero;stroke:none;stroke-width:5.26293802"
                 d="m 0,0 c 0,0 0.203,-0.347 0.561,-0.956 0.358,-0.609 0.772,-1.454 1.356,-2.435 1.134,-2.001 2.739,-4.309 4.159,-6.862 1.423,-2.593 2.613,-5.628 2.938,-10.3 0.136,-2.324 0.058,-5.052 -0.435,-8.254 -0.504,-3.19 -1.407,-6.869 -3.088,-10.864 -3.101,1.656 -5.683,3.327 -7.791,5.23 -2.109,1.882 -3.745,4.007 -4.926,6.294 -1.204,2.259 -1.883,4.785 -2.199,7.245 -0.257,2.527 -0.137,5.018 0.389,7.376 1.015,4.727 3.39,8.465 5.448,10.582 0.978,1.082 1.975,1.801 2.587,2.269 C -0.364,-0.211 0,0 0,0" />
            </g>
            <g
               transform="translate(279.02907,380.86836)"
               id="g4861"
               style="stroke-width:5.26293802">
              <path
                 inkscape:connector-curvature="0"
                 id="path4859"
                 style="fill:#578935;fill-opacity:1;fill-rule:nonzero;stroke:none;stroke-width:5.26293802"
                 d="m 0,0 c 0,0 0.993,-1.402 2.13,-3.567 1.259,-2.192 2.75,-5.001 4.093,-8.162 1.328,-3.211 2.412,-6.852 2.369,-12.33 -0.048,-2.709 -0.401,-5.885 -1.422,-9.44 -1.018,-3.536 -2.715,-7.438 -5.43,-11.237 -2.52,2.791 -4.656,5.205 -6.393,7.617 -1.736,2.39 -3.111,4.82 -4.052,7.369 -1.943,5.042 -2.065,10.787 -0.757,15.623 1.268,4.87 3.816,8.585 5.828,10.843 1.04,1.141 1.979,1.952 2.613,2.489 C -0.375,-0.258 0,0 0,0" />
            </g>
            <g
               transform="translate(316.14025,383.20336)"
               id="g4865"
               style="stroke-width:5.26293802">
              <path
                 inkscape:connector-curvature="0"
                 id="path4863"
                 style="fill:#578935;fill-opacity:1;fill-rule:nonzero;stroke:none;stroke-width:5.26293802"
                 d="M 0,0 C 0,0 0.808,-1.541 1.577,-4.019 2.353,-6.505 3.07,-9.91 3.009,-13.503 3.022,-15.27 2.728,-17.139 2.311,-18.889 2.085,-19.773 1.78,-20.652 1.382,-21.522 1.033,-22.379 0.6,-23.224 0.051,-24.068 c -2.1,-3.432 -5.689,-6.396 -11.398,-11.589 -4.068,6.019 -4.892,12.847 -4.154,18.03 0.2,1.285 0.478,2.51 0.813,3.665 0.345,1.141 0.784,2.134 1.243,3.103 0.92,1.952 2.049,3.441 3.214,4.743 2.335,2.54 4.901,4.015 6.862,4.91 C -1.399,-0.311 0,0 0,0" />
            </g>
            <g
               transform="translate(108.39125,433.07256)"
               id="g4869"
               style="stroke-width:5.26293802">
              <path
                 inkscape:connector-curvature="0"
                 id="path4867"
                 style="fill:#78bd49;fill-opacity:1;fill-rule:nonzero;stroke:none;stroke-width:5.26293802"
                 d="m 0,0 c 0,0 1.722,-0.053 4.001,-0.324 1.107,-0.15 2.389,-0.324 3.765,-0.509 0.683,-0.102 1.366,-0.225 2.028,-0.382 0.662,-0.175 1.337,-0.351 2.026,-0.533 1.4,-0.378 2.584,-1.03 3.899,-1.824 0.634,-0.412 1.211,-0.934 1.791,-1.532 0.621,-0.563 1.207,-1.233 1.764,-2.039 2.31,-3.144 4.348,-8.149 6.94,-16.232 -6.316,-3.065 -12.068,-2.75 -16.465,-0.749 -1.09,0.537 -2.108,1.153 -3.047,1.826 -0.951,0.65 -1.757,1.532 -2.518,2.348 -0.745,0.858 -1.45,1.66 -2.003,2.631 -0.562,0.952 -1.045,1.912 -1.456,2.854 -0.862,1.826 -1.248,3.882 -1.501,5.597 -0.113,0.882 -0.205,1.677 -0.204,2.472 0.012,0.807 0.061,1.548 0.126,2.214 C -0.579,-1.515 0,0 0,0" />
            </g>
            <g
               transform="translate(121.21495,466.27806)"
               id="g4873"
               style="stroke-width:5.26293802">
              <path
                 inkscape:connector-curvature="0"
                 id="path4871"
                 style="fill:#4d752e;fill-opacity:1;fill-rule:nonzero;stroke:none;stroke-width:5.26293802"
                 d="m 0,0 c 0,-0.001 1.235,-1.028 2.799,-2.547 1.705,-1.491 3.746,-3.205 5.754,-4.79 2.031,-1.65 3.92,-3.51 6.249,-7.683 1.118,-2.068 2.348,-4.714 3.38,-8.074 1.016,-3.338 1.849,-7.427 1.819,-11.931 -2.94,0.669 -5.402,1.121 -7.638,1.903 -2.22,0.757 -4.257,1.835 -6.108,3.362 -1.839,1.481 -3.513,3.486 -4.865,5.759 -0.676,1.155 -1.278,2.331 -1.773,3.622 -0.516,1.217 -0.899,2.544 -1.21,3.811 -0.611,2.548 -0.826,5.018 -0.743,7.144 0.013,0.529 0.036,1.037 0.065,1.519 0.059,0.492 0.124,0.96 0.195,1.405 0.14,0.889 0.301,1.68 0.465,2.375 0.389,1.399 0.816,2.429 1.113,3.105 C -0.196,-0.34 0,0 0,0" />
            </g>
            <g
               transform="translate(161.67445,503.11056)"
               id="g4877"
               style="stroke-width:5.26293802">
              <path
                 inkscape:connector-curvature="0"
                 id="path4875"
                 style="fill:#78bd49;fill-opacity:1;fill-rule:nonzero;stroke:none;stroke-width:5.26293802"
                 d="m 0,0 c 0,0 0.713,-1.263 1.478,-3.18 0.78,-1.931 1.552,-4.431 1.814,-7.123 0.159,-1.37 0.16,-2.777 -0.096,-4.188 -0.129,-0.705 -0.32,-1.413 -0.589,-2.121 -0.23,-0.73 -0.534,-1.461 -0.928,-2.193 -0.771,-1.473 -1.979,-2.918 -3.511,-4.445 -1.518,-1.532 -3.501,-3.093 -6.057,-4.748 -1.438,2.494 -2.409,4.922 -3.012,7.208 -0.621,2.291 -0.686,4.391 -0.597,6.331 0.058,0.968 0.181,1.889 0.356,2.762 0.183,0.869 0.484,1.676 0.787,2.438 0.624,1.522 1.405,2.838 2.249,3.95 0.809,1.122 1.858,1.989 2.779,2.702 0.943,0.706 1.852,1.232 2.639,1.619 C -1.108,-0.218 0,0 0,0" />
            </g>
            <g
               transform="translate(91.148054,429.14816)"
               id="g4881"
               style="stroke-width:5.26293802">
              <path
                 inkscape:connector-curvature="0"
                 id="path4879"
                 style="fill:#578935;fill-opacity:1;fill-rule:nonzero;stroke:none;stroke-width:5.26293802"
                 d="m 0,0 c 0,0 0.159,-0.35 0.435,-0.961 0.248,-0.6 0.602,-1.453 1.027,-2.48 0.822,-2.047 1.903,-4.602 2.664,-7.355 1.506,-5.56 1.706,-12.185 -4.861,-25.073 -4.575,4.118 -7.158,8.907 -8.16,13.682 -1.022,4.762 -0.444,9.418 0.934,13.008 1.37,3.618 3.426,6.086 5.095,7.427 0.805,0.691 1.573,1.107 2.068,1.378 C -0.292,-0.107 0,0 0,0" />
            </g>
            <g
               transform="translate(52.830754,469.78296)"
               id="g4885"
               style="stroke-width:5.26293802">
              <path
                 inkscape:connector-curvature="0"
                 id="path4883"
                 style="fill:#78bd49;fill-opacity:1;fill-rule:nonzero;stroke:none;stroke-width:5.26293802"
                 d="m 0,0 c 0,0 1.425,-0.279 3.509,-1.125 2.082,-0.852 4.86,-2.264 7.604,-4.875 2.721,-2.617 5.502,-6.466 7.086,-12.271 0.778,-2.879 1.223,-6.306 0.962,-10.039 -0.089,-0.952 -0.19,-1.888 -0.361,-2.842 -0.203,-0.977 -0.447,-1.939 -0.728,-2.87 -0.341,-0.959 -0.742,-1.887 -1.167,-2.753 -0.497,-0.874 -1.069,-1.681 -1.642,-2.394 -1.549,3.273 -3.392,5.328 -4.942,7.369 -1.586,2.002 -2.925,3.873 -4.161,5.815 -2.38,3.839 -4.037,7.89 -5.017,11.741 -0.996,3.842 -1.348,7.42 -1.377,10.036 C -0.271,-1.597 0,0 0,0" />
            </g>
            <g
               transform="translate(92.566554,481.16436)"
               id="g4889"
               style="stroke-width:5.26293802">
              <path
                 inkscape:connector-curvature="0"
                 id="path4887"
                 style="fill:#4d752e;fill-opacity:1;fill-rule:nonzero;stroke:none;stroke-width:5.26293802"
                 d="m 0,0 c 0,0 0.546,-1.33 1.345,-3.274 0.804,-1.908 1.934,-4.022 2.839,-6.132 0.893,-2.155 1.487,-4.539 1.033,-8.392 -0.244,-1.886 -0.756,-4.127 -1.786,-6.581 -1.026,-2.424 -2.578,-5.082 -4.898,-7.236 -1.741,2.386 -3.219,4.244 -4.363,6.098 -1.143,1.827 -1.993,3.682 -2.517,5.607 -0.539,1.896 -0.745,3.97 -0.679,5.94 0.098,2.029 0.449,3.97 1.089,5.74 1.238,3.553 3.387,5.906 5.061,6.981 0.831,0.564 1.594,0.844 2.087,1.025 C -0.287,-0.051 0,0 0,0" />
            </g>
            <g
               transform="translate(98.740354,519.42506)"
               id="g4893"
               style="stroke-width:5.26293802">
              <path
                 inkscape:connector-curvature="0"
                 id="path4891"
                 style="fill:#78bd49;fill-opacity:1;fill-rule:nonzero;stroke:none;stroke-width:5.26293802"
                 d="m 0,0 c 0,0 1.731,-0.731 4.106,-2.258 2.349,-1.531 5.451,-3.824 8.165,-7.167 1.366,-1.697 2.652,-3.596 3.687,-5.901 0.52,-1.141 0.984,-2.348 1.37,-3.635 0.359,-1.32 0.646,-2.713 0.836,-4.171 0.213,-1.439 0.241,-3.022 0.158,-4.649 -0.094,-1.633 -0.232,-3.286 -0.708,-5.068 -0.457,-1.764 -0.963,-3.535 -1.805,-5.349 -0.877,-1.82 -1.926,-3.623 -3.152,-5.369 -1.394,1.533 -2.626,2.965 -3.708,4.325 -1.074,1.359 -2.24,2.663 -3.136,3.925 -0.887,1.258 -1.785,2.491 -2.568,3.706 -0.796,1.218 -1.371,2.392 -2.027,3.589 -1.231,2.373 -2.047,4.691 -2.691,6.98 -0.584,2.257 -0.939,4.498 -1.065,6.581 -0.246,4.193 0.309,7.836 1.05,10.42 C -0.774,-1.468 0,0 0,0" />
            </g>
            <g
               transform="translate(147.22235,531.31076)"
               id="g4897"
               style="stroke-width:5.26293802">
              <path
                 inkscape:connector-curvature="0"
                 id="path4895"
                 style="fill:#4d752e;fill-opacity:1;fill-rule:nonzero;stroke:none;stroke-width:5.26293802"
                 d="m 0,0 c 0,0 0.578,-1.695 1.039,-4.301 0.478,-2.618 0.783,-6.084 0.379,-9.781 -0.169,-1.872 -0.542,-3.788 -1.221,-5.683 -0.34,-0.949 -0.757,-1.891 -1.264,-2.825 -0.465,-0.952 -1.007,-1.902 -1.66,-2.833 -1.278,-1.879 -3.082,-3.652 -5.229,-5.454 -2.131,-1.811 -4.805,-3.572 -8.156,-5.342 -1.05,3.615 -1.584,7.046 -1.73,10.218 -0.097,1.602 -0.002,3.076 0.16,4.485 0.161,1.41 0.401,2.75 0.706,4.018 0.303,1.268 0.673,2.461 1.09,3.582 0.431,1.112 0.965,2.107 1.504,3.054 1.089,1.884 2.314,3.479 3.568,4.81 2.543,2.64 5.339,4.106 7.37,4.979 C -1.388,-0.212 0,0 0,0" />
            </g>
            <g
               transform="translate(-19.061346,386.72536)"
               id="g4901"
               style="stroke-width:5.26293802">
              <path
                 inkscape:connector-curvature="0"
                 id="path4899"
                 style="fill:#578935;fill-opacity:1;fill-rule:nonzero;stroke:none;stroke-width:5.26293802"
                 d="m 0,0 c 0,0 1.196,-0.8 2.801,-2.19 1.607,-1.395 3.662,-3.323 5.472,-5.645 1.843,-2.332 3.353,-5.043 4.393,-8.437 0.514,-1.75 0.92,-3.68 1.472,-6.059 0.565,-2.377 1.287,-5.288 2.96,-8.704 -2.849,-1.199 -5.991,-1.035 -8.692,0.017 -2.741,1.036 -4.968,2.929 -6.67,5.004 -1.739,2.084 -2.849,4.411 -3.648,6.65 -0.735,2.258 -1.119,4.451 -1.203,6.469 -0.181,4.047 0.621,7.33 1.465,9.53 0.397,1.098 0.845,1.945 1.144,2.508 C -0.198,-0.292 0,0 0,0" />
            </g>
            <g
               transform="translate(204.75065,493.21366)"
               id="g4905"
               style="stroke-width:5.26293802">
              <path
                 inkscape:connector-curvature="0"
                 id="path4903"
                 style="fill:#78bd49;fill-opacity:1;fill-rule:nonzero;stroke:none;stroke-width:5.26293802"
                 d="M 0,0 C 0,0 0.262,-0.326 0.687,-0.985 1.102,-1.644 1.71,-2.643 2.316,-4.003 3.493,-6.692 4.718,-10.961 4.761,-16.2 4.835,-21.419 3.73,-27.43 1.266,-33.171 c -1.24,-2.908 -2.774,-5.738 -4.631,-8.722 -1.852,-2.996 -4.039,-6.108 -6.396,-10.039 -1.705,3.985 -2.495,8.275 -2.735,12.24 -0.243,3.991 0.063,7.664 0.586,10.911 1.081,6.549 2.956,11.434 4.741,15.439 1.802,3.975 3.587,7.151 4.921,9.532 0.674,1.179 1.189,2.136 1.601,2.793 C -0.245,-0.356 0,0 0,0" />
            </g>
            <g
               transform="translate(192.53575,530.32056)"
               id="g4909"
               style="stroke-width:5.26293802">
              <path
                 inkscape:connector-curvature="0"
                 id="path4907"
                 style="fill:#578935;fill-opacity:1;fill-rule:nonzero;stroke:none;stroke-width:5.26293802"
                 d="m 0,0 c 0,0 1.595,-1.307 3.48,-3.8 1.879,-2.493 4.033,-6.22 4.956,-11.04 0.893,-4.77 0.594,-10.811 -2.937,-16.804 -1.737,-2.94 -4.409,-5.87 -7.955,-7.807 -3.489,-1.929 -8.148,-2.743 -12.197,-0.612 1.043,4.519 0.733,7.96 0.606,10.754 -0.176,2.806 -0.237,5.034 -0.041,7.221 0.421,4.193 1.927,7.913 3.984,11.148 2.032,3.232 4.545,5.972 6.554,7.91 C -1.537,-1.092 0,0 0,0" />
            </g>
            <g
               transform="translate(245.06025,488.34056)"
               id="g4913"
               style="stroke-width:5.26293802">
              <path
                 inkscape:connector-curvature="0"
                 id="path4911"
                 style="fill:#578935;fill-opacity:1;fill-rule:nonzero;stroke:none;stroke-width:5.26293802"
                 d="m 0,0 c 0,0 -0.037,-2.096 -0.614,-5.196 -0.569,-3.098 -1.677,-7.179 -3.461,-11.108 -1.763,-3.97 -4.212,-7.646 -7.279,-10.699 -1.611,-1.564 -3.334,-2.954 -5.429,-4.88 -2.069,-1.93 -4.54,-4.607 -6.757,-9.156 -2.908,3.241 -4.59,7.994 -4.824,12.685 -0.033,1.147 -0.09,2.371 0.024,3.479 0.109,1.111 0.255,2.223 0.441,3.321 0.457,2.065 1.03,4.147 1.808,5.859 1.491,3.603 3.468,6.292 5.468,8.444 2.02,2.095 4.105,3.626 6.103,4.679 3.999,2.14 7.629,2.675 10.249,2.786 C -1.65,0.319 0,0 0,0" />
            </g>
            <g
               transform="translate(267.51435,476.85186)"
               id="g4917"
               style="stroke-width:5.26293802">
              <path
                 inkscape:connector-curvature="0"
                 id="path4915"
                 style="fill:#78bd49;fill-opacity:1;fill-rule:nonzero;stroke:none;stroke-width:5.26293802"
                 d="m 0,0 c 0,0 0.889,-1.099 1.847,-3.178 0.473,-1.04 1.007,-2.338 1.307,-3.83 0.165,-0.749 0.305,-1.555 0.407,-2.41 0.105,-0.86 0.173,-1.766 0.116,-2.691 -0.1,-1.853 -0.303,-3.922 -1.078,-5.928 -0.367,-1.009 -0.778,-2.046 -1.328,-3.041 -0.587,-0.972 -1.26,-1.933 -2.019,-2.852 -3.095,-3.592 -8.19,-6.318 -14.387,-5.382 1.087,6.6 1.764,10.947 2.976,14.29 0.264,0.866 0.573,1.646 0.928,2.362 0.376,0.697 0.652,1.451 1.047,2.085 0.36,0.662 0.83,1.224 1.203,1.835 0.392,0.599 0.816,1.157 1.262,1.68 0.935,1.022 1.744,2.036 2.657,2.873 0.916,0.838 1.737,1.603 2.469,2.232 C -1.117,-0.7 0,0 0,0" />
            </g>
            <g
               transform="translate(300.29455,418.25026)"
               id="g4921"
               style="stroke-width:5.26293802">
              <path
                 inkscape:connector-curvature="0"
                 id="path4919"
                 style="fill:#4d752e;fill-opacity:1;fill-rule:nonzero;stroke:none;stroke-width:5.26293802"
                 d="m 0,0 c 0,0 3.381,-5.952 3.604,-13.355 0.115,-3.737 -0.586,-7.726 -2.893,-11.895 -2.313,-4.117 -6.267,-8.159 -12.686,-11.574 -4.639,14.171 -1.767,23.306 2.507,29.108 C -5.262,-1.981 0,0 0,0" />
            </g>
            <g
               transform="translate(301.03185,465.93776)"
               id="g4925"
               style="stroke-width:5.26293802">
              <path
                 inkscape:connector-curvature="0"
                 id="path4923"
                 style="fill:#578935;fill-opacity:1;fill-rule:nonzero;stroke:none;stroke-width:5.26293802"
                 d="m 0,0 c 0,0 1.407,-0.952 3.111,-3.198 0.849,-1.12 1.81,-2.616 2.464,-4.337 0.349,-0.872 0.675,-1.822 0.957,-2.848 0.291,-1.037 0.525,-2.135 0.619,-3.219 0.213,-2.178 0.27,-4.731 -0.268,-7.076 -0.243,-1.201 -0.584,-2.423 -1.029,-3.644 -0.476,-1.168 -1.065,-2.319 -1.769,-3.456 -2.841,-4.54 -7.673,-8.21 -15.238,-10.586 -2.221,7.993 -2.446,14.137 -1.774,18.755 0.156,1.156 0.39,2.226 0.693,3.228 0.286,0.998 0.561,1.904 0.942,2.763 0.791,1.732 1.577,3.168 2.556,4.487 1.042,1.331 1.896,2.447 2.942,3.516 1.033,1.049 1.98,2.008 2.795,2.829 C -1.327,-1.13 0,0 0,0" />
            </g>
            <g
               transform="translate(336.04755,431.82546)"
               id="g4929"
               style="stroke-width:5.26293802">
              <path
                 inkscape:connector-curvature="0"
                 id="path4927"
                 style="fill:#578935;fill-opacity:1;fill-rule:nonzero;stroke:none;stroke-width:5.26293802"
                 d="m 0,0 c 0,0 0.063,-1.903 -0.148,-4.563 -0.253,-2.621 -0.589,-6.133 -1.517,-9.44 -0.402,-1.74 -1.086,-3.288 -1.849,-4.98 -0.398,-0.827 -0.889,-1.6 -1.443,-2.387 -0.521,-0.823 -1.135,-1.622 -1.856,-2.391 -2.823,-3.164 -7.166,-6.34 -14.016,-9.729 -2.078,7.548 -1.704,14.219 0.096,19.529 0.956,2.629 2.146,4.947 3.641,6.8 1.393,1.924 3.077,3.333 4.673,4.453 0.399,0.281 0.794,0.542 1.189,0.783 0.413,0.217 0.821,0.415 1.222,0.597 0.804,0.363 1.579,0.659 2.32,0.896 1.457,0.51 2.855,0.641 4,0.69 C -1.391,0.353 0,0 0,0" />
            </g>
            <g
               transform="translate(277.02115,514.43186)"
               id="g4933"
               style="stroke-width:5.26293802">
              <path
                 inkscape:connector-curvature="0"
                 id="path4931"
                 style="fill:#4d752e;fill-opacity:1;fill-rule:nonzero;stroke:none;stroke-width:5.26293802"
                 d="m 0,0 c 0,0 -0.064,-2.068 -0.255,-4.736 -0.243,-2.597 -0.327,-6.033 -0.839,-8.873 -0.996,-6.047 -3.636,-9.732 -18.163,-14.795 -3.061,7.115 -3.18,13.557 -1.611,18.584 0.422,1.249 0.925,2.412 1.482,3.486 0.551,1.072 1.304,2.007 2.008,2.87 1.381,1.749 3.154,2.962 4.81,3.836 0.414,0.219 0.825,0.415 1.231,0.589 0.425,0.159 0.865,0.277 1.285,0.387 0.847,0.216 1.656,0.352 2.418,0.429 C -6.139,1.975 -4.707,1.741 -3.56,1.446 -1.267,0.864 0,0 0,0" />
            </g>
            <g
               transform="translate(235.44005,525.30296)"
               id="g4937"
               style="stroke-width:5.26293802">
              <path
                 inkscape:connector-curvature="0"
                 id="path4935"
                 style="fill:#78bd49;fill-opacity:1;fill-rule:nonzero;stroke:none;stroke-width:5.26293802"
                 d="m 0,0 c 0,0 -0.028,-0.53 -0.074,-1.439 -0.061,-0.875 -0.149,-2.112 -0.251,-3.585 -0.222,-2.918 -0.407,-6.523 -0.995,-9.923 -0.608,-3.438 -1.702,-6.729 -4.376,-9.941 -1.336,-1.576 -3.07,-3.14 -5.322,-4.519 -2.246,-1.365 -5.015,-2.571 -8.327,-3.14 -1.138,8.486 -0.962,14.852 0.607,20.147 1.511,5.235 4.32,9.108 7.316,11.269 3.001,2.197 6.025,2.623 8.112,2.285 1.038,-0.13 1.892,-0.479 2.447,-0.712 C -0.301,0.192 0,0 0,0" />
            </g>
            <g
               transform="translate(0.53095398,448.94216)"
               id="g4941"
               style="stroke-width:5.26293802">
              <path
                 inkscape:connector-curvature="0"
                 id="path4939"
                 style="fill:#4d752e;fill-opacity:1;fill-rule:nonzero;stroke:none;stroke-width:5.26293802"
                 d="M 0,0 C 0,0 1.146,1.429 3.327,2.953 5.519,4.541 8.756,5.905 12.606,5.786 13.547,5.72 14.526,5.57 15.524,5.314 16.021,5.187 16.529,5.04 17.031,4.853 17.516,4.64 18.004,4.397 18.492,4.127 19.47,3.585 20.446,2.926 21.396,2.138 c 0.914,-0.837 1.785,-1.834 2.611,-2.947 3.241,-4.489 5.437,-11.66 4.173,-20.867 -7.073,0.521 -11.672,1.25 -15.032,2.891 -0.854,0.376 -1.615,0.824 -2.304,1.341 -0.7,0.488 -1.367,0.958 -1.956,1.539 -1.159,1.205 -2.202,2.355 -3.077,3.753 -0.43,0.703 -0.847,1.387 -1.254,2.054 C 4.158,-9.422 3.789,-8.724 3.445,-8.022 2.768,-6.575 2.141,-5.303 1.624,-4.135 0.591,-1.792 0,0 0,0" />
            </g>
            <g
               transform="translate(58.727654,511.06816)"
               id="g4945"
               style="stroke-width:5.26293802">
              <path
                 inkscape:connector-curvature="0"
                 id="path4943"
                 style="fill:#578935;fill-opacity:1;fill-rule:nonzero;stroke:none;stroke-width:5.26293802"
                 d="m 0,0 c 0,0 7.1,0.357 12.461,-3.033 1.344,-0.854 2.582,-1.953 3.59,-3.385 0.505,-0.718 0.949,-1.51 1.328,-2.419 0.415,-0.972 0.758,-2.043 1.012,-3.217 1.011,-4.692 0.595,-11.089 -2.526,-19.302 -6.988,1.433 -11.336,3.825 -14.032,6.833 -0.673,0.753 -1.242,1.541 -1.723,2.356 -0.476,0.812 -0.936,1.789 -1.275,2.703 -0.699,1.865 -1.08,3.777 -1.236,5.631 C -3.031,-6.387 0,-0.001 0,0" />
            </g>
            <g
               transform="translate(31.800954,495.17796)"
               id="g4949"
               style="stroke-width:5.26293802">
              <path
                 inkscape:connector-curvature="0"
                 id="path4947"
                 style="fill:#578935;fill-opacity:1;fill-rule:nonzero;stroke:none;stroke-width:5.26293802"
                 d="m 0,0 c 0,0 1.667,-0.723 3.812,-2.007 2.108,-1.294 4.836,-3.061 6.965,-5.536 2.165,-2.501 3.802,-5.756 3.938,-10.547 0.098,-4.734 -1.283,-11.158 -5.84,-18.692 -6.353,3.433 -10.182,7.009 -12.364,11.094 -2.182,4.064 -2.677,8.485 -2.206,12.469 0.202,1.946 0.71,3.863 1.271,5.484 0.549,1.619 1.252,3.056 1.928,4.214 C -1.163,-1.215 0,0 0,0" />
            </g>
            <g
               transform="translate(-52.864146,348.52956)"
               id="g4953"
               style="stroke-width:5.26293802">
              <path
                 inkscape:connector-curvature="0"
                 id="path4951"
                 style="fill:#4d752e;fill-opacity:1;fill-rule:nonzero;stroke:none;stroke-width:5.26293802"
                 d="m 0,0 c 0,0 1.431,-0.216 3.516,-1.148 2.11,-0.923 4.77,-2.638 7.18,-5.305 1.187,-1.282 2.314,-2.922 3.261,-4.612 0.475,-0.865 0.904,-1.808 1.282,-2.817 0.394,-0.945 0.735,-1.972 1.011,-3.094 0.26,-1.161 0.53,-2.253 0.723,-3.513 0.195,-1.25 0.298,-2.667 0.475,-4.058 0.073,-0.718 0.134,-1.479 0.184,-2.286 0.059,-0.798 0.068,-1.689 0.173,-2.507 0.168,-1.689 0.317,-3.594 0.482,-5.752 -1.571,0.149 -3.119,0.477 -4.615,0.951 -0.77,0.219 -1.45,0.538 -2.103,0.893 -0.662,0.347 -1.307,0.725 -1.934,1.126 -0.621,0.404 -1.248,0.822 -1.807,1.279 -0.533,0.464 -1.048,0.948 -1.539,1.445 -0.96,0.991 -1.948,2.042 -2.643,3.118 -0.73,1.072 -1.379,2.172 -1.951,3.273 -0.574,1.104 -0.965,2.169 -1.347,3.249 -0.766,2.174 -1.15,4.194 -1.377,6.133 -0.447,3.828 -0.102,7.195 0.227,9.616 C -0.452,-1.567 0,0 0,0" />
            </g>
            <g
               transform="translate(-48.610246,394.05246)"
               id="g4957"
               style="stroke-width:5.26293802">
              <path
                 inkscape:connector-curvature="0"
                 id="path4955"
                 style="fill:#4d752e;fill-opacity:1;fill-rule:nonzero;stroke:none;stroke-width:5.26293802"
                 d="m 0,0 c 0,0 1.536,-0.55 3.513,-1.452 1.914,-0.939 4.514,-1.998 6.655,-3.553 1.185,-0.778 2.074,-1.711 3.085,-2.924 0.476,-0.608 0.9,-1.288 1.27,-2.061 0.431,-0.78 0.81,-1.647 1.124,-2.628 0.297,-0.975 0.611,-2.079 0.853,-3.306 0.241,-1.227 0.391,-2.57 0.527,-4.08 0.236,-2.985 0.185,-6.584 -0.367,-10.701 -6.267,0.444 -10.69,2.316 -13.863,5.466 -0.787,0.802 -1.491,1.651 -2.113,2.526 -0.621,0.882 -1.141,1.906 -1.595,2.873 -0.931,1.899 -1.447,4.088 -1.743,6.066 -0.075,0.498 -0.133,0.986 -0.18,1.465 -0.026,0.502 -0.033,1.003 -0.029,1.485 0.005,0.967 0.059,1.88 0.15,2.735 0.137,1.675 0.576,3.212 1,4.424 C -0.862,-1.243 0,0 0,0" />
            </g>
            <g
               transform="translate(-4.285446,246.80156)"
               id="g4961"
               style="stroke-width:5.26293802">
              <path
                 inkscape:connector-curvature="0"
                 id="path4959"
                 style="fill:#578935;fill-opacity:1;fill-rule:nonzero;stroke:none;stroke-width:5.26293802"
                 d="m 0,0 c 0,0 0.516,-2.263 0.998,-5.258 0.423,-2.961 1.073,-6.759 1.151,-9.77 0.242,-3.147 -0.113,-5.248 -1.917,-6.724 -0.245,-0.196 -0.572,-0.385 -0.874,-0.586 -0.27,-0.203 -0.587,-0.411 -0.958,-0.634 -0.718,-0.449 -1.762,-0.937 -2.697,-1.626 -0.972,-0.677 -2.32,-1.496 -3.598,-2.597 -1.269,-1.1 -2.748,-2.447 -4.404,-4.158 -1.611,1 -3.06,2.261 -4.323,3.681 -1.305,1.415 -2.067,3.038 -2.836,4.718 -0.345,0.84 -0.713,1.712 -0.908,2.566 -0.193,0.851 -0.34,1.712 -0.446,2.574 -0.193,1.713 -0.306,3.48 -0.034,5.003 0.218,1.563 0.568,3.064 1.013,4.457 0.52,1.294 1.147,2.468 1.824,3.54 0.34,0.536 0.691,1.042 1.054,1.517 0.381,0.443 0.785,0.824 1.187,1.196 0.809,0.735 1.642,1.361 2.474,1.884 3.417,1.908 6.792,2.01 9.274,1.489 C -1.549,0.81 0,0 0,0" />
            </g>
            <g
               transform="translate(304.75745,504.45146)"
               id="g4965"
               style="stroke-width:5.26293802">
              <path
                 inkscape:connector-curvature="0"
                 id="path4963"
                 style="fill:#578935;fill-opacity:1;fill-rule:nonzero;stroke:none;stroke-width:5.26293802"
                 d="m 0,0 c 0,0 1.063,-1.441 2.095,-3.915 1.059,-2.484 1.919,-5.977 1.602,-9.833 -0.336,-3.814 -1.889,-7.961 -5.519,-11.181 -3.615,-3.223 -9.238,-5.569 -17.41,-5.693 -1.739,15.108 2.483,21.559 7.733,25.459 1.348,0.948 2.643,1.744 3.974,2.391 1.342,0.64 2.593,1.162 3.686,1.582 C -1.631,-0.362 0,0 0,0" />
            </g>
            <g
               transform="translate(329.21545,484.03056)"
               id="g4969"
               style="stroke-width:5.26293802">
              <path
                 inkscape:connector-curvature="0"
                 id="path4967"
                 style="fill:#78bd49;fill-opacity:1;fill-rule:nonzero;stroke:none;stroke-width:5.26293802"
                 d="m 0,0 c 0,0 1.293,-1.203 2.807,-3.512 1.544,-2.313 3.151,-5.755 3.774,-9.997 0.269,-2.095 0.379,-4.421 -0.04,-6.77 -0.191,-1.18 -0.466,-2.387 -0.854,-3.597 -0.425,-1.193 -0.955,-2.393 -1.603,-3.58 -2.618,-4.684 -7.425,-9.254 -15.004,-11.294 -1.864,7.962 -2.519,13.615 -2.001,18.249 0.221,2.32 0.756,4.336 1.402,6.181 0.71,1.822 1.525,3.455 2.479,4.916 0.986,1.456 1.946,2.76 2.987,3.901 1.05,1.14 2.04,2.125 2.915,2.941 C -1.368,-0.927 0,0 0,0" />
            </g>
            <g
               transform="translate(393.06415,386.02176)"
               id="g4971"
               style="stroke-width:5.26293802" />
            <g
               style="stroke-width:5.26293802"
               id="g4975"
               transform="translate(108.66955,397.77666)">
              <path
                 d="m 0,0 c 0,0 1.564,0.568 3.74,1.013 2.15,0.401 4.982,0.906 7.681,0.497 1.404,-0.167 2.695,-0.644 4.07,-1.409 0.674,-0.393 1.316,-0.899 1.957,-1.518 0.666,-0.602 1.31,-1.331 1.931,-2.207 2.5,-3.473 4.902,-9.242 6.598,-18.561 -6.036,-3.049 -10.897,-3.289 -14.805,-1.727 -1.952,0.811 -3.643,1.991 -5.068,3.529 -1.432,1.45 -2.578,3.28 -3.477,5.099 -0.915,1.768 -1.517,3.795 -1.955,5.559 -0.445,1.76 -0.646,3.498 -0.734,4.96 C -0.243,-1.854 0,0 0,0"
                 style="fill:#578935;fill-opacity:1;fill-rule:nonzero;stroke:none;stroke-width:5.26293802"
                 id="path4973"
                 inkscape:connector-curvature="0" />
            </g>
            <g
               transform="translate(28.072212,373.13119)"
               id="g4979"
               style="stroke-width:5.26293802">
              <path
                 inkscape:connector-curvature="0"
                 id="path4977"
                 style="fill:#578935;fill-opacity:1;fill-rule:nonzero;stroke:none;stroke-width:5.26293802"
                 d="m 0,0 c 0,0 1.564,0.568 3.74,1.013 2.15,0.401 4.982,0.906 7.681,0.497 1.404,-0.167 2.695,-0.644 4.07,-1.409 0.674,-0.393 1.316,-0.899 1.957,-1.518 0.666,-0.602 1.31,-1.331 1.931,-2.207 2.5,-3.473 4.902,-9.242 6.598,-18.561 -6.036,-3.049 -10.897,-3.289 -14.805,-1.727 -1.952,0.811 -3.643,1.991 -5.068,3.529 -1.432,1.45 -2.578,3.28 -3.477,5.099 -0.915,1.768 -1.517,3.795 -1.955,5.559 -0.445,1.76 -0.646,3.498 -0.734,4.96 C -0.243,-1.854 0,0 0,0" />
            </g>
            <g
               style="stroke-width:5.26293802"
               id="g4983"
               transform="translate(158.88293,375.22928)">
              <path
                 d="m 0,0 c 0,0 1.063,-1.441 2.095,-3.915 1.059,-2.484 1.919,-5.977 1.602,-9.833 -0.336,-3.814 -1.889,-7.961 -5.519,-11.181 -3.615,-3.223 -9.238,-5.569 -17.41,-5.693 -1.739,15.108 2.483,21.559 7.733,25.459 1.348,0.948 2.643,1.744 3.974,2.391 1.342,0.64 2.593,1.162 3.686,1.582 C -1.631,-0.362 0,0 0,0"
                 style="fill:#578935;fill-opacity:1;fill-rule:nonzero;stroke:none;stroke-width:5.26293802"
                 id="path4981"
                 inkscape:connector-curvature="0" />
            </g>
          </g>
        </g>
      </g>
    </g>
  </g>
</svg>
