<?xml version="1.0" standalone="no"?>
<!DOCTYPE svg PUBLIC "-//W3C//DTD SVG 20010904//EN"
 "http://www.w3.org/TR/2001/REC-SVG-20010904/DTD/svg10.dtd">
<svg version="1.0" xmlns="http://www.w3.org/2000/svg"
 width="1520.000000pt" height="1520.000000pt" viewBox="0 0 1520.000000 1520.000000"
 preserveAspectRatio="xMidYMid meet">
<metadata>
Created by potrace 1.11, written by Peter Selinger 2001-2013
</metadata>
<g transform="translate(0.000000,1520.000000) scale(0.100000,-0.100000)"
fill="#000000" stroke="none">
<path d="M6596 14873 c-46 -12 -173 -76 -230 -117 -198 -142 -326 -412 -327
-690 0 -59 9 -176 16 -219 7 -39 38 -172 41 -176 5 -5 156 88 220 135 60 45
134 113 190 175 59 66 140 228 158 314 4 17 9 41 12 55 10 44 12 263 3 320 -5
30 -11 72 -15 94 -8 54 -27 109 -39 112 -5 1 -19 -1 -29 -3z"/>
<path d="M8027 14738 c-179 -177 -286 -346 -328 -521 -23 -95 -22 -80 -17
-482 1 -82 -5 -159 -18 -210 -8 -31 77 -58 175 -58 221 1 447 180 548 434 30
73 35 92 49 169 23 130 2 305 -54 445 -48 120 -194 323 -234 324 -9 1 -63 -45
-121 -101z"/>
<path d="M9325 14704 c-201 -64 -361 -306 -401 -604 -17 -126 -3 -484 19 -506
9 -9 159 41 222 74 148 78 257 188 319 323 50 111 70 230 91 547 4 56 8 110 9
119 4 48 -161 78 -259 47z"/>
<path d="M5000 14453 c-42 -92 -70 -242 -71 -380 0 -255 72 -472 239 -713 36
-52 68 -97 71 -100 3 -3 35 -41 71 -85 35 -44 79 -95 96 -114 l32 -34 35 54
c110 172 152 319 151 529 -1 312 -156 581 -449 780 -61 41 -147 90 -158 90 -2
0 -10 -12 -17 -27z"/>
<path d="M10664 14365 c-209 -45 -368 -232 -409 -480 -13 -83 -11 -213 6 -293
18 -88 60 -213 74 -218 17 -7 180 58 307 123 158 80 258 186 282 298 26 122
26 124 41 365 3 58 8 115 11 127 12 59 -179 106 -312 78z"/>
<path d="M3689 14203 c-14 -3 -38 -53 -54 -113 -30 -113 -38 -169 -38 -270 -1
-199 50 -343 164 -458 74 -75 217 -149 355 -185 l92 -24 22 71 c12 39 26 82
31 96 37 109 54 336 35 455 -41 242 -215 389 -499 421 -29 3 -61 7 -72 8 -11
1 -27 1 -36 -1z"/>
<path d="M11797 13949 c-170 -63 -277 -126 -364 -216 -82 -85 -150 -222 -167
-338 -4 -23 -9 -52 -12 -65 -6 -30 -6 -296 0 -325 2 -11 5 -26 5 -34 1 -11 18
-13 94 -7 263 18 490 138 592 311 106 179 108 415 4 622 -46 94 -43 92 -152
52z"/>
<path d="M7059 13916 c-131 -53 -226 -150 -287 -292 -51 -120 -51 -293 -1
-439 17 -49 73 -172 84 -183 5 -6 135 95 194 152 81 78 136 162 162 249 39
127 11 326 -69 483 l-27 53 -56 -23z"/>
<path d="M13190 13677 c0 -3 9 -52 20 -109 10 -57 22 -119 25 -138 3 -19 7
-46 10 -60 3 -14 7 -41 9 -60 2 -19 9 -72 16 -117 16 -121 19 -141 26 -218 3
-38 7 -81 9 -94 27 -172 27 -927 0 -1126 -3 -16 -7 -57 -10 -90 -9 -93 -15
-141 -32 -260 -9 -60 -17 -117 -18 -125 -6 -46 -54 -302 -70 -370 -2 -8 -6
-26 -9 -40 -3 -14 -8 -36 -11 -50 -8 -43 -64 -260 -96 -370 -226 -776 -607
-1541 -1086 -2180 -60 -80 -116 -154 -125 -165 -233 -285 -300 -359 -532 -590
-238 -237 -290 -284 -581 -523 -84 -68 -320 -240 -447 -323 -84 -56 -169 -112
-187 -125 -19 -13 -37 -22 -38 -20 -2 2 18 95 46 207 44 181 56 238 67 314 9
61 11 198 3 253 -24 166 -103 315 -241 453 l-72 72 -34 -39 c-117 -136 -208
-335 -236 -519 -11 -72 -12 -205 -3 -245 2 -8 7 -33 12 -54 24 -118 83 -223
176 -311 66 -62 164 -118 228 -131 30 -6 31 -8 15 -25 -9 -11 -20 -19 -23 -19
-4 0 -74 -38 -156 -85 -83 -47 -233 -127 -335 -177 -102 -50 -186 -92 -188
-94 -2 -1 16 -31 40 -66 123 -179 249 -411 343 -629 51 -121 157 -421 169
-480 2 -13 16 -71 29 -129 14 -58 28 -121 31 -140 3 -19 8 -46 11 -60 9 -43
13 -68 30 -200 13 -96 20 -245 20 -435 0 -238 -7 -351 -30 -505 -3 -19 -10
-64 -15 -100 -60 -390 -228 -859 -444 -1235 -39 -67 -156 -249 -173 -270 -5
-5 -24 -32 -42 -59 -32 -47 -201 -255 -238 -294 -10 -10 -41 -43 -69 -73 -417
-441 -965 -785 -1554 -974 -98 -31 -327 -90 -384 -99 -47 -8 -59 -16 -25 -17
13 0 31 -2 39 -4 17 -3 132 -12 295 -22 215 -15 776 -8 967 12 24 2 77 7 118
10 41 4 89 8 105 10 17 3 55 7 85 10 30 4 66 8 80 10 14 2 45 7 70 10 57 7
337 53 370 60 14 3 39 8 55 10 17 3 37 8 45 10 8 2 26 6 40 9 62 10 187 39
330 75 448 113 880 263 1305 454 230 104 618 301 656 333 8 8 18 14 22 14 11
0 281 162 303 182 11 10 24 18 28 18 14 0 341 227 493 341 134 102 368 290
434 350 14 13 64 58 110 99 86 76 462 449 534 530 65 72 237 271 275 319 19
24 41 49 48 57 45 47 316 421 427 589 194 293 309 491 460 787 200 392 418
930 460 1138 2 8 6 29 10 45 l7 30 -21 -33 c-12 -18 -21 -35 -21 -38 0 -11
-160 -290 -243 -424 -352 -564 -785 -1066 -1299 -1503 -286 -243 -651 -495
-993 -687 -135 -76 -458 -240 -472 -240 -4 0 63 47 151 105 240 159 536 386
705 540 25 22 74 67 110 100 638 583 1203 1388 1537 2188 14 34 32 76 39 92
43 96 198 543 209 602 3 13 7 26 10 31 3 5 7 19 10 33 3 13 17 67 31 119 14
52 27 104 29 115 3 11 11 49 20 85 15 64 21 94 31 148 3 15 10 47 15 72 5 25
14 72 19 105 6 33 13 74 15 90 3 17 10 66 16 110 6 44 13 91 15 105 2 14 7 59
10 100 4 41 9 82 10 90 3 14 13 151 20 270 5 73 5 541 0 605 -2 28 -6 95 -10
150 -3 55 -8 111 -10 125 -2 14 -7 54 -10 90 -4 36 -8 74 -10 85 -1 11 -6 47
-10 80 -12 100 -33 202 -35 175 -1 -14 -4 -34 -5 -45 -1 -11 -5 -45 -9 -75 -3
-30 -8 -66 -10 -80 -3 -14 -7 -47 -11 -75 -3 -27 -8 -57 -10 -65 -2 -8 -6 -35
-9 -60 -3 -25 -15 -92 -27 -150 -11 -58 -23 -114 -25 -125 -66 -340 -236 -878
-381 -1205 -13 -30 -28 -64 -33 -75 -74 -174 -241 -494 -368 -705 -75 -125
-273 -423 -296 -448 -7 -7 26 65 74 160 47 95 93 191 102 213 9 22 28 67 43
100 14 33 32 74 40 90 7 17 39 100 70 185 31 85 63 171 71 190 22 55 123 395
140 472 2 10 6 26 8 36 27 107 56 233 60 257 6 29 10 52 21 105 5 26 15 81 21
115 18 110 20 119 28 185 4 30 9 66 11 80 62 433 66 1104 10 1500 -2 14 -6 50
-9 80 -3 30 -8 64 -10 75 -2 11 -7 43 -10 70 -4 28 -11 77 -17 110 -6 33 -13
71 -15 85 -53 311 -191 806 -303 1095 l-20 50 6 -120 c11 -217 6 -578 -11
-750 -2 -16 -7 -64 -11 -105 -4 -41 -8 -86 -10 -100 -2 -14 -6 -54 -10 -90 -3
-36 -8 -72 -10 -80 -2 -8 -7 -35 -10 -60 -29 -211 -120 -629 -183 -835 -208
-686 -475 -1252 -851 -1805 -126 -187 -322 -442 -445 -580 -27 -30 -78 -89
-115 -130 -88 -100 -392 -402 -398 -396 -3 3 6 15 20 28 74 69 268 298 412
488 44 57 84 109 88 115 107 139 331 495 439 695 51 95 198 387 198 394 0 2
15 37 34 78 184 396 372 1013 452 1485 2 16 7 40 10 55 3 15 7 42 9 60 3 18 7
51 10 73 12 76 14 90 20 140 3 28 8 68 10 90 8 57 12 120 30 395 6 85 6 456 0
545 -17 283 -20 320 -30 410 -8 71 -29 231 -40 300 -2 11 -6 38 -9 60 -3 22
-8 51 -11 65 -3 14 -8 41 -11 60 -4 27 -55 265 -79 370 -12 52 -80 290 -115
405 -24 75 -133 380 -155 430 -7 17 -30 71 -51 120 -56 134 -184 407 -184 392z"/>
<path d="M2747 13637 c-103 -135 -166 -330 -165 -507 3 -270 130 -467 420
-648 l68 -42 23 37 c37 60 92 181 120 268 39 118 55 217 52 324 -6 222 -99
365 -332 517 -48 31 -147 84 -156 84 -3 0 -16 -15 -30 -33z"/>
<path d="M8540 13578 c-8 -13 -24 -41 -37 -64 -12 -22 -36 -65 -52 -95 -176
-310 -276 -606 -307 -899 -5 -52 -5 -238 1 -295 11 -112 38 -232 72 -317 l15
-37 110 172 c145 225 171 270 229 391 100 210 141 387 142 606 1 80 -2 159 -5
175 -4 17 -11 53 -17 80 -18 90 -63 205 -113 284 -16 26 -20 26 -38 -1z"/>
<path d="M9680 13443 c-323 -51 -585 -294 -685 -638 -67 -231 -44 -463 62
-646 30 -52 60 -87 67 -78 1 2 17 30 35 62 63 111 101 154 304 340 183 168
287 331 367 575 41 124 44 139 63 272 18 126 27 115 -88 116 -55 0 -111 -1
-125 -3z"/>
<path d="M6242 13353 c-18 -21 -46 -65 -62 -98 -95 -197 -80 -448 37 -633 37
-57 137 -163 219 -229 50 -42 50 -42 64 -20 127 201 152 517 55 707 -13 25
-32 56 -42 69 -21 28 -228 241 -235 241 -2 0 -18 -17 -36 -37z"/>
<path d="M12673 13262 c-122 -97 -233 -229 -298 -356 -52 -102 -63 -140 -85
-286 -10 -68 -5 -259 10 -342 16 -91 51 -262 56 -270 2 -3 32 4 67 17 275 99
459 307 511 577 16 78 14 230 -3 286 -5 17 -8 32 -6 32 8 0 -44 140 -71 191
-31 58 -51 88 -101 149 l-31 40 -49 -38z"/>
<path d="M4743 13177 c-89 -48 -155 -130 -196 -244 -31 -86 -39 -134 -39 -240
0 -137 37 -239 144 -398 83 -123 105 -148 117 -140 25 15 105 131 136 197 53
112 77 216 78 338 1 99 -2 110 -35 190 -85 202 -138 315 -150 317 -7 2 -32 -7
-55 -20z"/>
<path d="M10600 13016 c-140 -111 -242 -231 -304 -358 -41 -84 -86 -224 -100
-318 -3 -19 -8 -48 -12 -65 -24 -119 -31 -190 -21 -197 21 -13 161 0 227 21
156 49 278 167 344 333 33 83 40 128 41 238 0 127 -18 208 -70 310 -45 86 -43
86 -105 36z"/>
<path d="M7547 12874 c-1 -1 -36 -5 -77 -8 -196 -17 -270 -47 -359 -141 -90
-97 -158 -227 -201 -382 -12 -43 -24 -86 -26 -95 -6 -20 51 -50 182 -94 65
-22 98 -27 184 -28 103 -1 108 0 182 37 218 107 317 391 232 665 l-17 52 -49
-2 c-27 -2 -50 -4 -51 -4z"/>
<path d="M3477 12800 c-10 -39 1 -264 18 -350 50 -259 129 -425 327 -688 61
-81 122 -168 137 -194 14 -26 29 -48 32 -48 25 0 100 165 114 250 4 25 9 54
11 65 6 25 6 193 0 220 -2 11 -7 42 -11 69 -41 287 -238 547 -496 654 -109 45
-125 48 -132 22z"/>
<path d="M5750 12673 c-24 -53 -40 -105 -46 -151 -3 -26 -8 -50 -11 -55 -2 -4
-4 -51 -4 -105 2 -231 89 -457 235 -604 92 -93 198 -150 351 -187 50 -12 105
-26 123 -30 36 -10 35 -11 33 64 -4 151 -59 363 -133 523 -71 150 -164 267
-303 377 -60 48 -102 85 -169 147 -28 26 -54 48 -57 48 -3 0 -12 -12 -19 -27z"/>
<path d="M11651 12572 c-65 -65 -141 -151 -169 -191 -52 -74 -106 -191 -117
-251 -3 -18 -8 -36 -10 -40 -2 -3 -7 -32 -10 -65 -19 -156 -7 -330 35 -513 27
-117 14 -111 135 -61 239 98 402 259 469 465 25 77 27 91 33 204 10 205 -53
380 -185 523 -25 26 -49 47 -54 47 -5 0 -62 -53 -127 -118z"/>
<path d="M1595 12648 c-5 -17 -66 -229 -71 -248 -2 -8 -17 -67 -33 -130 -17
-63 -30 -116 -30 -118 0 -1 -5 -26 -10 -55 -6 -28 -13 -61 -15 -72 -6 -31 -36
-188 -40 -210 -2 -11 -7 -42 -11 -70 -5 -27 -9 -52 -10 -55 -1 -7 -15 -114
-21 -170 -3 -25 -7 -58 -9 -75 -54 -401 -49 -1025 10 -1470 2 -16 7 -52 10
-80 4 -27 8 -57 10 -65 2 -8 7 -35 10 -60 23 -173 97 -512 165 -750 66 -230
185 -572 245 -705 13 -27 35 -79 50 -115 57 -138 256 -530 324 -640 128 -206
46 -107 -160 195 -295 431 -554 942 -736 1455 -83 234 -197 640 -219 777 -3
21 -8 41 -10 45 -3 4 -9 31 -14 60 -5 29 -18 105 -30 168 -20 114 -44 290 -55
405 -3 33 -8 71 -10 85 -4 22 -13 147 -20 290 -2 25 -4 59 -5 75 -2 48 -129
-430 -155 -585 -3 -19 -8 -46 -10 -60 -3 -14 -8 -36 -10 -50 -6 -28 -21 -125
-30 -185 -3 -23 -7 -50 -9 -60 -2 -11 -7 -49 -11 -85 -4 -36 -8 -72 -10 -80
-2 -8 -6 -53 -10 -100 -4 -46 -9 -96 -10 -110 -22 -170 -21 -906 0 -990 2 -8
7 -55 10 -104 4 -50 9 -99 11 -109 2 -11 6 -45 9 -76 7 -59 12 -99 20 -141 2
-14 7 -43 10 -65 5 -36 20 -130 30 -180 4 -21 54 -259 60 -285 39 -173 156
-571 195 -665 27 -66 79 -209 76 -212 -11 -11 -261 417 -369 633 -99 198 -267
580 -267 608 0 5 -7 22 -14 39 -33 71 -133 384 -187 587 l-34 125 -6 -55 c-5
-58 -2 -561 5 -620 2 -19 7 -75 10 -125 4 -49 9 -101 11 -115 2 -14 7 -52 10
-85 3 -33 8 -71 10 -85 2 -14 9 -59 14 -100 6 -41 13 -86 16 -100 2 -13 11
-63 20 -110 8 -47 17 -96 20 -110 2 -14 10 -50 16 -80 71 -355 219 -816 386
-1205 69 -159 225 -477 268 -544 14 -22 25 -43 25 -45 0 -11 143 -247 235
-386 148 -225 401 -558 541 -710 114 -126 172 -186 269 -284 61 -61 137 -135
169 -163 32 -29 55 -53 51 -53 -19 0 -382 267 -531 390 -207 172 -342 298
-554 517 -83 84 -138 145 -279 308 -169 195 -435 571 -589 831 -109 185 -126
217 -222 408 -50 99 -92 181 -94 183 -7 8 91 -416 114 -492 6 -16 32 -108 60
-202 43 -147 79 -256 174 -523 9 -25 20 -54 25 -65 5 -11 28 -67 51 -125 128
-318 325 -716 510 -1030 79 -135 286 -458 300 -470 4 -3 25 -32 47 -66 37 -53
232 -317 275 -369 45 -56 257 -305 288 -339 273 -304 621 -635 900 -858 41
-33 86 -69 99 -80 65 -55 325 -243 481 -347 145 -98 522 -331 535 -331 1 0 32
-16 67 -36 203 -116 572 -289 872 -411 228 -91 705 -250 856 -284 19 -4 78
-19 130 -33 52 -14 109 -28 125 -31 37 -7 206 -45 222 -50 27 -9 330 314 479
510 53 70 198 285 230 341 58 102 86 156 136 256 31 64 69 145 83 180 14 35
30 72 35 83 51 106 152 449 195 665 53 264 79 644 60 910 -5 84 -15 191 -20
225 -3 17 -7 48 -10 70 -6 42 -21 140 -30 190 -3 17 -10 44 -15 60 -5 17 -11
47 -15 69 -3 21 -8 43 -11 48 -3 5 -8 22 -10 38 -11 68 -126 409 -174 515 -64
143 -135 286 -181 368 -51 92 -216 346 -261 401 -12 16 -50 64 -83 105 -90
113 -103 128 -190 217 -71 73 -87 84 -145 101 -196 60 -578 222 -848 358 -291
148 -436 231 -705 408 l-167 111 63 31 c192 95 344 261 392 428 19 64 22 167
11 302 -4 50 -9 117 -12 150 -5 70 -13 127 -19 133 -2 2 -39 4 -82 4 -218 0
-416 -181 -483 -441 -27 -106 -21 -290 14 -426 14 -55 26 -104 26 -108 0 -19
-359 269 -565 453 -63 57 -417 410 -470 470 -572 640 -1015 1355 -1305 2105
-4 11 -15 36 -23 55 -8 19 -22 58 -31 85 -9 28 -20 59 -25 70 -12 27 -23 60
-66 195 -99 310 -173 608 -231 940 -19 110 -21 125 -29 189 -4 30 -8 62 -10
71 -3 15 -11 77 -20 155 -3 28 -11 122 -20 225 -23 277 -23 547 -1 828 2 33
-1 42 -9 20z"/>
<path d="M2020 12304 c-85 -22 -171 -68 -233 -126 l-58 -53 20 -51 c11 -27 34
-81 51 -120 18 -38 38 -80 44 -94 66 -147 206 -305 316 -357 68 -32 114 -48
165 -58 86 -17 218 -35 279 -37 81 -3 76 -13 78 142 2 187 -27 325 -99 462
-73 139 -184 240 -308 283 -67 22 -187 27 -255 9z"/>
<path d="M8620 11758 c-239 -92 -406 -394 -395 -718 2 -63 6 -124 8 -135 3
-11 8 -33 12 -50 37 -157 119 -300 243 -425 101 -101 146 -134 159 -118 20 25
130 255 165 343 115 293 129 463 57 680 -42 124 -174 445 -184 444 -5 0 -35
-10 -65 -21z"/>
<path d="M10655 11676 c-175 -42 -319 -202 -374 -416 -15 -56 -19 -99 -16
-170 4 -92 26 -193 45 -205 5 -3 34 1 63 10 30 9 63 17 73 19 57 11 107 17
179 21 127 8 179 29 250 99 75 75 146 208 171 321 25 111 36 206 26 222 -10
15 -129 69 -193 87 -74 22 -163 26 -224 12z"/>
<path d="M3144 11540 c-65 -66 -117 -155 -148 -249 -34 -101 -37 -121 -41
-226 -5 -178 51 -322 190 -481 6 -7 41 -44 79 -83 l69 -71 39 42 c231 257 298
616 156 833 -45 70 -263 285 -288 285 -4 0 -29 -23 -56 -50z"/>
<path d="M5329 11579 c0 -8 -2 -21 -4 -29 -69 -303 61 -614 315 -749 104 -56
245 -77 370 -56 50 8 180 52 194 65 9 9 -36 147 -96 300 -81 206 -178 334
-298 395 -78 39 -226 70 -392 82 -71 5 -88 3 -89 -8z"/>
<path d="M9712 11538 c-144 -45 -270 -153 -368 -316 -88 -145 -124 -291 -119
-472 2 -63 6 -131 9 -151 10 -64 55 -208 86 -277 46 -100 123 -232 137 -232
34 0 247 206 336 325 81 109 150 249 164 330 2 17 8 46 12 65 18 83 2 227 -43
400 -7 25 -65 200 -93 277 -28 81 -27 80 -121 51z"/>
<path d="M12705 11540 c-376 -105 -580 -555 -469 -1037 l17 -73 76 42 c359
194 519 383 579 683 36 179 52 382 31 396 -22 15 -169 8 -234 -11z"/>
<path d="M4683 11417 c-143 -106 -233 -306 -235 -522 -1 -207 69 -392 212
-555 72 -83 74 -83 116 7 107 233 146 378 147 538 0 119 -1 126 -32 238 -28
97 -123 329 -137 334 -6 2 -38 -16 -71 -40z"/>
<path d="M7275 11381 c-112 -27 -180 -66 -270 -157 -44 -44 -84 -87 -90 -95
-107 -150 -261 -443 -249 -473 10 -26 126 -113 200 -150 93 -46 160 -60 252
-53 126 10 243 80 336 202 108 141 195 409 199 609 l2 81 -50 17 c-107 35
-230 42 -330 19z"/>
<path d="M11655 11044 c-163 -106 -286 -270 -343 -456 -52 -168 -47 -417 12
-623 1 -5 8 -29 15 -52 14 -51 15 -50 126 23 397 260 508 659 311 1117 -10 23
-23 37 -34 37 -10 0 -49 -20 -87 -46z"/>
<path d="M2164 10849 c-7 -12 -8 -164 0 -226 30 -242 159 -479 330 -608 54
-40 164 -98 211 -110 86 -23 109 -27 198 -32 l89 -6 -5 29 c-23 134 -96 364
-149 468 -73 146 -179 277 -280 345 -69 46 -210 107 -293 127 -5 1 -29 7 -53
12 -24 6 -44 6 -48 1z"/>
<path d="M3944 10518 c-153 -114 -218 -172 -268 -237 -45 -58 -129 -201 -119
-201 3 0 1 -6 -5 -12 -14 -18 -58 -163 -71 -233 -18 -101 -21 -226 -6 -231 32
-13 301 78 380 128 262 166 370 540 234 809 -16 33 -31 59 -33 59 -1 0 -52
-37 -112 -82z"/>
<path d="M7890 10469 c-215 -26 -422 -227 -517 -503 -30 -89 -65 -249 -55
-257 4 -4 54 -10 112 -14 57 -4 108 -9 113 -12 20 -12 195 -4 249 11 222 65
416 352 444 658 7 73 14 65 -76 89 -115 30 -191 38 -270 28z"/>
<path d="M5498 10454 c-42 -8 -94 -20 -115 -27 l-38 -12 1 -125 c4 -326 164
-604 396 -686 101 -35 268 -24 385 27 27 12 58 25 70 29 l21 9 -19 88 c-83
380 -205 602 -374 680 -50 23 -76 28 -155 30 -52 1 -130 -5 -172 -13z"/>
<path d="M10923 10352 c-291 -65 -782 -272 -1187 -502 -55 -31 -128 -72 -161
-90 -70 -39 -80 -44 -222 -129 -59 -35 -181 -110 -271 -167 l-162 -103 -88 14
c-404 65 -756 22 -1065 -131 -176 -87 -322 -202 -436 -344 -20 -25 -39 -47
-42 -50 -17 -16 -102 -166 -128 -226 -52 -123 -78 -231 -87 -369 -4 -49 -8
-92 -10 -94 -10 -11 -213 -5 -300 9 -177 30 -319 86 -461 183 -46 31 -83 54
-83 51 0 -12 57 -102 104 -164 148 -196 405 -367 626 -416 19 -4 40 -9 45 -10
6 -1 32 -7 58 -12 26 -5 50 -12 52 -14 6 -5 -195 -55 -255 -63 -25 -3 -58 -8
-75 -11 -42 -8 -270 -7 -330 0 -281 36 -485 108 -715 254 -47 30 -102 68 -123
84 l-38 30 27 -48 c258 -470 730 -784 1264 -841 114 -12 285 -7 416 12 47 7
43 23 43 -150 1 -171 -17 -398 -44 -550 -7 -35 -24 -129 -31 -165 -29 -145
-138 -493 -190 -607 -13 -30 -24 -56 -24 -59 0 -3 -22 -52 -50 -110 -27 -58
-50 -109 -50 -114 0 -6 24 -43 53 -83 110 -149 218 -328 316 -524 39 -78 71
-144 71 -148 0 -3 10 -27 21 -53 36 -79 46 -105 59 -147 7 -22 18 -53 26 -70
13 -29 91 -284 98 -322 2 -10 11 -47 19 -83 9 -36 23 -105 31 -155 9 -49 18
-99 20 -110 2 -11 7 -49 11 -85 4 -36 9 -78 11 -95 22 -173 22 -611 0 -733 -2
-9 -7 -48 -11 -87 -3 -38 -18 -128 -32 -200 -14 -71 -27 -139 -29 -150 -10
-56 -87 -321 -114 -395 -17 -47 -35 -97 -40 -111 -4 -15 -15 -42 -23 -60 -9
-19 -28 -63 -42 -99 -101 -246 -299 -574 -498 -823 -110 -138 -138 -169 -310
-340 -125 -124 -145 -147 -121 -143 16 3 49 8 73 11 43 5 84 11 131 20 14 2
45 7 70 11 24 3 47 7 51 9 3 2 21 7 40 10 19 3 93 21 164 40 807 211 1518 694
2020 1369 76 103 215 310 215 321 0 3 11 23 25 45 49 78 174 337 228 475 49
125 138 399 151 465 3 14 12 57 21 95 22 98 32 153 40 205 3 25 10 72 15 105
5 33 12 92 15 130 3 39 8 93 10 120 6 63 6 408 1 455 -3 19 -7 78 -11 130 -4
52 -8 97 -10 100 -1 3 -6 32 -10 64 -8 71 -40 251 -54 304 -6 20 -12 48 -15
62 -2 14 -5 25 -6 25 -1 0 -3 7 -5 15 -11 52 -61 216 -99 321 -75 212 -175
426 -291 625 -50 84 -55 100 -83 245 -17 84 -33 181 -37 214 -4 33 -8 67 -10
75 -5 18 -12 79 -20 170 -8 83 -8 304 -1 353 3 20 8 54 11 74 17 117 73 257
139 348 19 27 98 113 174 190 172 175 223 247 273 392 51 149 56 279 17 460
-14 66 -4 103 60 228 86 167 334 512 574 800 137 165 191 229 216 257 16 18
64 74 107 123 43 50 86 97 94 106 9 9 53 56 97 105 98 107 187 197 238 242
l38 33 -36 -3 c-20 -1 -84 -13 -143 -26z"/>
<path d="M12173 9886 c-84 -40 -142 -79 -199 -132 -232 -221 -285 -608 -126
-919 14 -27 30 -60 36 -73 6 -12 16 -21 22 -20 30 7 340 308 350 340 3 10 9
18 13 18 18 0 85 160 102 245 24 117 -1 374 -45 478 -8 17 -20 47 -26 65 -16
41 -34 41 -127 -2z"/>
<path d="M10959 9773 c-227 -219 -318 -565 -227 -863 23 -76 82 -198 129 -267
33 -49 157 -204 170 -213 4 -3 21 -22 38 -43 l30 -39 37 58 c64 100 140 277
159 370 3 16 8 38 10 49 27 131 28 339 1 457 -18 82 -70 213 -129 328 -82 159
-125 230 -139 230 -5 0 -41 -30 -79 -67z"/>
<path d="M6955 9640 c-33 -11 -69 -24 -80 -29 -11 -5 -46 -21 -78 -36 -236
-104 -378 -288 -416 -540 -11 -72 -13 -293 -3 -355 7 -42 9 -45 38 -44 267 8
507 113 623 273 117 162 143 384 67 589 -20 54 -77 162 -85 161 -3 0 -33 -9
-66 -19z"/>
<path d="M2880 9639 c-106 -16 -128 -20 -179 -35 l-54 -15 6 -132 c6 -160 29
-256 92 -384 100 -202 259 -313 449 -313 82 0 197 26 271 62 47 22 50 26 47
58 -5 46 -68 293 -86 333 -7 18 -24 57 -36 87 -56 138 -164 271 -253 309 -73
31 -171 43 -257 30z"/>
<path d="M4959 9630 c-35 -9 -95 -32 -132 -50 l-68 -34 6 -51 c22 -162 89
-335 177 -453 154 -207 448 -270 690 -147 98 49 96 30 22 215 -131 326 -199
423 -349 497 -93 46 -224 55 -346 23z"/>
<path d="M4425 9612 c-11 -2 -63 -17 -115 -34 -339 -110 -384 -148 -581 -491
-41 -71 -82 -142 -92 -159 l-18 -30 38 -35 c103 -94 228 -147 348 -145 93 1
128 8 200 42 137 66 226 172 285 340 32 90 37 271 11 362 -34 114 -54 154 -76
150z"/>
<path d="M5385 8704 c-44 -7 -98 -19 -120 -26 -37 -12 -40 -16 -37 -46 1 -18
12 -60 24 -95 78 -225 248 -392 453 -444 50 -13 198 -10 252 4 101 26 266 121
260 150 -2 12 -148 173 -232 256 -96 96 -219 173 -305 193 -19 4 -42 9 -50 11
-42 10 -174 8 -245 -3z"/>
<path d="M4530 8541 c-23 -13 -157 -39 -235 -46 -61 -5 -100 -10 -155 -20
-247 -46 -508 -225 -611 -421 -61 -114 -62 -108 33 -122 46 -6 90 -13 98 -15
8 -2 42 -9 75 -16 33 -7 76 -16 96 -20 72 -16 226 -11 300 10 259 72 443 286
454 529 6 121 -7 148 -55 121z"/>
<path d="M10513 8511 c-125 -98 -218 -262 -252 -441 -15 -81 -6 -253 17 -330
55 -184 172 -325 374 -452 50 -32 94 -58 98 -58 11 0 68 176 89 275 26 120 33
191 32 306 -1 180 -46 327 -150 489 -19 29 -25 39 -85 140 -25 41 -48 83 -51
93 -10 24 -17 22 -72 -22z"/>
<path d="M5257 7337 c-49 -84 -64 -113 -94 -187 -70 -169 -82 -277 -48 -445
15 -72 155 -353 201 -404 11 -12 21 -8 69 29 134 103 230 259 261 424 8 40 7
147 -1 200 -28 178 -169 351 -339 416 -22 8 -27 5 -49 -33z"/>
<path d="M6295 6709 c-22 -4 -55 -10 -72 -13 -43 -8 -125 -41 -187 -74 l-48
-27 5 -60 c9 -90 33 -171 77 -260 113 -231 341 -325 566 -235 43 17 104 47
135 66 l58 35 -13 42 c-31 101 -116 279 -170 357 -93 133 -216 193 -351 169z"/>
</g>
</svg>
